G75*
%MOIN*%
%OFA0B0*%
%FSLAX25Y25*%
%IPPOS*%
%LPD*%
%AMOC8*
5,1,8,0,0,1.08239X$1,22.5*
%
%ADD10C,0.00000*%
%ADD11C,0.06000*%
%ADD12C,0.08600*%
%ADD13C,0.05937*%
%ADD14C,0.06496*%
%ADD15C,0.06496*%
%ADD16C,0.01000*%
%ADD17C,0.02781*%
%ADD18C,0.17386*%
D10*
X0005437Y0028622D02*
X0005437Y0264843D01*
X0391264Y0264843D01*
X0391264Y0028622D01*
X0005437Y0028622D01*
D11*
X0044827Y0251843D02*
X0044827Y0257843D01*
X0054827Y0257843D02*
X0054827Y0251843D01*
X0064827Y0251843D02*
X0064827Y0257843D01*
X0074827Y0257843D02*
X0074827Y0251843D01*
X0084827Y0251843D02*
X0084827Y0257843D01*
X0094827Y0257843D02*
X0094827Y0251843D01*
X0104827Y0251843D02*
X0104827Y0257843D01*
X0114827Y0257843D02*
X0114827Y0251843D01*
X0124827Y0251843D02*
X0124827Y0257843D01*
X0134827Y0257843D02*
X0134827Y0251843D01*
X0144827Y0251843D02*
X0144827Y0257843D01*
X0154827Y0257843D02*
X0154827Y0251843D01*
X0164827Y0251843D02*
X0164827Y0257843D01*
X0174827Y0257843D02*
X0174827Y0251843D01*
X0184827Y0251843D02*
X0184827Y0257843D01*
X0194827Y0257843D02*
X0194827Y0251843D01*
D12*
X0179177Y0048661D03*
X0165398Y0048661D03*
D13*
X0169677Y0092567D03*
X0159677Y0092567D03*
X0149677Y0092567D03*
X0139677Y0092567D03*
X0129677Y0092567D03*
X0119677Y0092567D03*
X0109677Y0092567D03*
X0099677Y0092567D03*
X0089677Y0092567D03*
X0079677Y0092567D03*
X0079677Y0102567D03*
X0089677Y0102567D03*
X0099677Y0102567D03*
X0109677Y0102567D03*
X0119677Y0102567D03*
X0129677Y0102567D03*
X0139677Y0102567D03*
X0149677Y0102567D03*
X0159677Y0102567D03*
X0169677Y0102567D03*
X0179677Y0102567D03*
X0189677Y0102567D03*
X0189677Y0092567D03*
X0179677Y0092567D03*
X0199677Y0092567D03*
X0209677Y0092567D03*
X0209677Y0102567D03*
X0199677Y0102567D03*
X0219677Y0102567D03*
X0229677Y0102567D03*
X0229677Y0092567D03*
X0219677Y0092567D03*
X0220862Y0118295D03*
X0230862Y0118295D03*
X0230862Y0128295D03*
X0220862Y0128295D03*
X0220862Y0138295D03*
X0230862Y0138295D03*
X0229661Y0172795D03*
X0219661Y0172795D03*
X0219661Y0182795D03*
X0229661Y0182795D03*
X0229661Y0192795D03*
X0219661Y0192795D03*
X0219661Y0202795D03*
X0229661Y0202795D03*
X0229661Y0212795D03*
X0219661Y0212795D03*
X0209661Y0212795D03*
X0199661Y0212795D03*
X0189661Y0212795D03*
X0179661Y0212795D03*
X0169661Y0212795D03*
X0159661Y0212795D03*
X0149661Y0212795D03*
X0139661Y0212795D03*
X0129661Y0212795D03*
X0119661Y0212795D03*
X0109661Y0212795D03*
X0099661Y0212795D03*
X0089661Y0212795D03*
X0079661Y0212795D03*
X0069661Y0212795D03*
X0069661Y0222795D03*
X0079661Y0222795D03*
X0089661Y0222795D03*
X0099661Y0222795D03*
X0109661Y0222795D03*
X0119661Y0222795D03*
X0129661Y0222795D03*
X0139661Y0222795D03*
X0149661Y0222795D03*
X0159661Y0222795D03*
X0169661Y0222795D03*
X0179661Y0222795D03*
X0189661Y0222795D03*
X0199661Y0222795D03*
X0209661Y0222795D03*
X0219661Y0222795D03*
X0229661Y0222795D03*
X0049661Y0222795D03*
X0039661Y0222795D03*
X0029661Y0222795D03*
X0029661Y0212795D03*
X0039661Y0212795D03*
X0049661Y0212795D03*
X0049677Y0102567D03*
X0039677Y0102567D03*
X0029677Y0102567D03*
X0029677Y0092567D03*
X0039677Y0092567D03*
X0049677Y0092567D03*
X0059677Y0092567D03*
X0059677Y0102567D03*
D14*
X0342740Y0117205D02*
X0349236Y0117205D01*
X0349236Y0130984D02*
X0342740Y0130984D01*
X0342740Y0160512D02*
X0349236Y0160512D01*
X0349236Y0174291D02*
X0342740Y0174291D01*
X0342740Y0203819D02*
X0349236Y0203819D01*
X0349236Y0217598D02*
X0342740Y0217598D01*
X0342740Y0087677D02*
X0349236Y0087677D01*
X0349236Y0073898D02*
X0342740Y0073898D01*
D15*
X0365673Y0073898D03*
X0365673Y0087677D03*
X0365673Y0117205D03*
X0365673Y0130984D03*
X0365673Y0160512D03*
X0365673Y0174291D03*
X0365673Y0203819D03*
X0365673Y0217598D03*
D16*
X0361038Y0219338D02*
X0353871Y0219338D01*
X0354184Y0218583D02*
X0353431Y0220401D01*
X0352039Y0221793D01*
X0350220Y0222546D01*
X0341756Y0222546D01*
X0339937Y0221793D01*
X0338545Y0220401D01*
X0337792Y0218583D01*
X0337792Y0216614D01*
X0338545Y0214796D01*
X0339937Y0213404D01*
X0341756Y0212650D01*
X0350220Y0212650D01*
X0352039Y0213404D01*
X0353431Y0214796D01*
X0354184Y0216614D01*
X0354184Y0218583D01*
X0354184Y0218339D02*
X0360725Y0218339D01*
X0360725Y0218583D02*
X0360725Y0216614D01*
X0361478Y0214796D01*
X0362870Y0213404D01*
X0364689Y0212650D01*
X0366657Y0212650D01*
X0368476Y0213404D01*
X0369868Y0214796D01*
X0370621Y0216614D01*
X0370621Y0218583D01*
X0369868Y0220401D01*
X0368476Y0221793D01*
X0366657Y0222546D01*
X0364689Y0222546D01*
X0362870Y0221793D01*
X0361478Y0220401D01*
X0360725Y0218583D01*
X0360725Y0217341D02*
X0354184Y0217341D01*
X0354072Y0216342D02*
X0360838Y0216342D01*
X0361251Y0215344D02*
X0353658Y0215344D01*
X0352981Y0214345D02*
X0361929Y0214345D01*
X0363008Y0213347D02*
X0351901Y0213347D01*
X0350220Y0208767D02*
X0352039Y0208014D01*
X0353431Y0206622D01*
X0354184Y0204803D01*
X0354184Y0202835D01*
X0353431Y0201016D01*
X0352039Y0199624D01*
X0350220Y0198871D01*
X0341756Y0198871D01*
X0339937Y0199624D01*
X0338545Y0201016D01*
X0337792Y0202835D01*
X0337792Y0204803D01*
X0338545Y0206622D01*
X0339937Y0208014D01*
X0341756Y0208767D01*
X0350220Y0208767D01*
X0351217Y0208354D02*
X0363692Y0208354D01*
X0362870Y0208014D02*
X0364689Y0208767D01*
X0366657Y0208767D01*
X0368476Y0208014D01*
X0369868Y0206622D01*
X0370621Y0204803D01*
X0370621Y0202835D01*
X0369868Y0201016D01*
X0368476Y0199624D01*
X0366657Y0198871D01*
X0364689Y0198871D01*
X0362870Y0199624D01*
X0361478Y0201016D01*
X0360725Y0202835D01*
X0360725Y0204803D01*
X0361478Y0206622D01*
X0362870Y0208014D01*
X0362212Y0207356D02*
X0352697Y0207356D01*
X0353541Y0206357D02*
X0361369Y0206357D01*
X0360955Y0205359D02*
X0353954Y0205359D01*
X0354184Y0204360D02*
X0360725Y0204360D01*
X0360725Y0203362D02*
X0354184Y0203362D01*
X0353989Y0202363D02*
X0360921Y0202363D01*
X0361334Y0201365D02*
X0353575Y0201365D01*
X0352781Y0200366D02*
X0362129Y0200366D01*
X0363490Y0199367D02*
X0351419Y0199367D01*
X0340557Y0199367D02*
X0232546Y0199367D01*
X0232572Y0199387D02*
X0233070Y0199884D01*
X0233483Y0200453D01*
X0233803Y0201080D01*
X0234020Y0201749D01*
X0234109Y0202311D01*
X0230146Y0202311D01*
X0230146Y0203280D01*
X0229177Y0203280D01*
X0229177Y0207243D01*
X0228615Y0207154D01*
X0227946Y0206936D01*
X0227319Y0206617D01*
X0226750Y0206204D01*
X0226253Y0205706D01*
X0225840Y0205137D01*
X0225520Y0204511D01*
X0225303Y0203842D01*
X0225214Y0203280D01*
X0229177Y0203280D01*
X0229177Y0202311D01*
X0225214Y0202311D01*
X0225303Y0201749D01*
X0225520Y0201080D01*
X0225840Y0200453D01*
X0226253Y0199884D01*
X0226750Y0199387D01*
X0227319Y0198973D01*
X0227946Y0198654D01*
X0228615Y0198437D01*
X0229177Y0198348D01*
X0229177Y0202311D01*
X0230146Y0202311D01*
X0230146Y0198348D01*
X0230708Y0198437D01*
X0231377Y0198654D01*
X0232003Y0198973D01*
X0232572Y0199387D01*
X0233420Y0200366D02*
X0339195Y0200366D01*
X0338401Y0201365D02*
X0233895Y0201365D01*
X0234109Y0203280D02*
X0234020Y0203842D01*
X0233803Y0204511D01*
X0233483Y0205137D01*
X0233070Y0205706D01*
X0232572Y0206204D01*
X0232003Y0206617D01*
X0231377Y0206936D01*
X0230708Y0207154D01*
X0230146Y0207243D01*
X0230146Y0203280D01*
X0234109Y0203280D01*
X0234096Y0203362D02*
X0337792Y0203362D01*
X0337792Y0204360D02*
X0233851Y0204360D01*
X0233322Y0205359D02*
X0338022Y0205359D01*
X0338436Y0206357D02*
X0232361Y0206357D01*
X0230146Y0206357D02*
X0229177Y0206357D01*
X0229177Y0205359D02*
X0230146Y0205359D01*
X0230146Y0204360D02*
X0229177Y0204360D01*
X0229177Y0203362D02*
X0230146Y0203362D01*
X0230146Y0202363D02*
X0337987Y0202363D01*
X0339279Y0207356D02*
X0009937Y0207356D01*
X0009937Y0208354D02*
X0029137Y0208354D01*
X0029177Y0208354D02*
X0030146Y0208354D01*
X0030146Y0208348D02*
X0030708Y0208437D01*
X0031377Y0208654D01*
X0032003Y0208973D01*
X0032572Y0209387D01*
X0033070Y0209884D01*
X0033483Y0210453D01*
X0033803Y0211080D01*
X0034020Y0211749D01*
X0034109Y0212311D01*
X0030146Y0212311D01*
X0030146Y0213280D01*
X0029177Y0213280D01*
X0029177Y0217243D01*
X0028615Y0217154D01*
X0027946Y0216936D01*
X0027319Y0216617D01*
X0026750Y0216204D01*
X0026253Y0215706D01*
X0025840Y0215137D01*
X0025520Y0214511D01*
X0025303Y0213842D01*
X0025214Y0213280D01*
X0029177Y0213280D01*
X0029177Y0212311D01*
X0025214Y0212311D01*
X0025303Y0211749D01*
X0025520Y0211080D01*
X0025840Y0210453D01*
X0026253Y0209884D01*
X0026750Y0209387D01*
X0027319Y0208973D01*
X0027946Y0208654D01*
X0028615Y0208437D01*
X0029177Y0208348D01*
X0029177Y0212311D01*
X0030146Y0212311D01*
X0030146Y0208348D01*
X0030186Y0208354D02*
X0038184Y0208354D01*
X0038733Y0208127D02*
X0040590Y0208127D01*
X0042306Y0208838D01*
X0043619Y0210151D01*
X0044330Y0211867D01*
X0044330Y0213724D01*
X0043619Y0215440D01*
X0042306Y0216753D01*
X0040590Y0217464D01*
X0038733Y0217464D01*
X0037017Y0216753D01*
X0035704Y0215440D01*
X0034993Y0213724D01*
X0034993Y0211867D01*
X0035704Y0210151D01*
X0037017Y0208838D01*
X0038733Y0208127D01*
X0041139Y0208354D02*
X0048184Y0208354D01*
X0048733Y0208127D02*
X0050590Y0208127D01*
X0052306Y0208838D01*
X0053619Y0210151D01*
X0054330Y0211867D01*
X0054330Y0213724D01*
X0053619Y0215440D01*
X0052306Y0216753D01*
X0050590Y0217464D01*
X0048733Y0217464D01*
X0047017Y0216753D01*
X0045704Y0215440D01*
X0044993Y0213724D01*
X0044993Y0211867D01*
X0045704Y0210151D01*
X0047017Y0208838D01*
X0048733Y0208127D01*
X0051139Y0208354D02*
X0068184Y0208354D01*
X0068733Y0208127D02*
X0070590Y0208127D01*
X0072306Y0208838D01*
X0073619Y0210151D01*
X0074330Y0211867D01*
X0074330Y0213724D01*
X0073619Y0215440D01*
X0072306Y0216753D01*
X0070590Y0217464D01*
X0068733Y0217464D01*
X0067017Y0216753D01*
X0065704Y0215440D01*
X0064993Y0213724D01*
X0064993Y0211867D01*
X0065704Y0210151D01*
X0067017Y0208838D01*
X0068733Y0208127D01*
X0071139Y0208354D02*
X0078184Y0208354D01*
X0078733Y0208127D02*
X0080590Y0208127D01*
X0082306Y0208838D01*
X0083619Y0210151D01*
X0084330Y0211867D01*
X0084330Y0213724D01*
X0083619Y0215440D01*
X0082306Y0216753D01*
X0080590Y0217464D01*
X0078733Y0217464D01*
X0077017Y0216753D01*
X0075704Y0215440D01*
X0074993Y0213724D01*
X0074993Y0211867D01*
X0075704Y0210151D01*
X0077017Y0208838D01*
X0078733Y0208127D01*
X0081139Y0208354D02*
X0088184Y0208354D01*
X0088733Y0208127D02*
X0090590Y0208127D01*
X0092306Y0208838D01*
X0093619Y0210151D01*
X0094330Y0211867D01*
X0094330Y0213724D01*
X0093619Y0215440D01*
X0092306Y0216753D01*
X0090590Y0217464D01*
X0088733Y0217464D01*
X0087017Y0216753D01*
X0085704Y0215440D01*
X0084993Y0213724D01*
X0084993Y0211867D01*
X0085704Y0210151D01*
X0087017Y0208838D01*
X0088733Y0208127D01*
X0091139Y0208354D02*
X0098184Y0208354D01*
X0098733Y0208127D02*
X0100590Y0208127D01*
X0102306Y0208838D01*
X0103619Y0210151D01*
X0104330Y0211867D01*
X0104330Y0213724D01*
X0103619Y0215440D01*
X0102306Y0216753D01*
X0100590Y0217464D01*
X0098733Y0217464D01*
X0097017Y0216753D01*
X0095704Y0215440D01*
X0094993Y0213724D01*
X0094993Y0211867D01*
X0095704Y0210151D01*
X0097017Y0208838D01*
X0098733Y0208127D01*
X0101139Y0208354D02*
X0108184Y0208354D01*
X0108733Y0208127D02*
X0110590Y0208127D01*
X0112306Y0208838D01*
X0113619Y0210151D01*
X0114330Y0211867D01*
X0114330Y0213724D01*
X0113619Y0215440D01*
X0112306Y0216753D01*
X0110590Y0217464D01*
X0108733Y0217464D01*
X0107017Y0216753D01*
X0105704Y0215440D01*
X0104993Y0213724D01*
X0104993Y0211867D01*
X0105704Y0210151D01*
X0107017Y0208838D01*
X0108733Y0208127D01*
X0111139Y0208354D02*
X0118184Y0208354D01*
X0118733Y0208127D02*
X0120590Y0208127D01*
X0122306Y0208838D01*
X0123619Y0210151D01*
X0124330Y0211867D01*
X0124330Y0213724D01*
X0123619Y0215440D01*
X0122306Y0216753D01*
X0120590Y0217464D01*
X0118733Y0217464D01*
X0117017Y0216753D01*
X0115704Y0215440D01*
X0114993Y0213724D01*
X0114993Y0211867D01*
X0115704Y0210151D01*
X0117017Y0208838D01*
X0118733Y0208127D01*
X0121139Y0208354D02*
X0128184Y0208354D01*
X0128733Y0208127D02*
X0130590Y0208127D01*
X0132306Y0208838D01*
X0133619Y0210151D01*
X0134330Y0211867D01*
X0134330Y0213724D01*
X0133619Y0215440D01*
X0132306Y0216753D01*
X0130590Y0217464D01*
X0128733Y0217464D01*
X0127017Y0216753D01*
X0125704Y0215440D01*
X0124993Y0213724D01*
X0124993Y0211867D01*
X0125704Y0210151D01*
X0127017Y0208838D01*
X0128733Y0208127D01*
X0131139Y0208354D02*
X0138184Y0208354D01*
X0138733Y0208127D02*
X0140590Y0208127D01*
X0142306Y0208838D01*
X0143619Y0210151D01*
X0144330Y0211867D01*
X0144330Y0213724D01*
X0143619Y0215440D01*
X0142306Y0216753D01*
X0140590Y0217464D01*
X0138733Y0217464D01*
X0137017Y0216753D01*
X0135704Y0215440D01*
X0134993Y0213724D01*
X0134993Y0211867D01*
X0135704Y0210151D01*
X0137017Y0208838D01*
X0138733Y0208127D01*
X0141139Y0208354D02*
X0148184Y0208354D01*
X0148733Y0208127D02*
X0150590Y0208127D01*
X0152306Y0208838D01*
X0153619Y0210151D01*
X0154330Y0211867D01*
X0154330Y0213724D01*
X0153619Y0215440D01*
X0152306Y0216753D01*
X0150590Y0217464D01*
X0148733Y0217464D01*
X0147017Y0216753D01*
X0145704Y0215440D01*
X0144993Y0213724D01*
X0144993Y0211867D01*
X0145704Y0210151D01*
X0147017Y0208838D01*
X0148733Y0208127D01*
X0151139Y0208354D02*
X0158184Y0208354D01*
X0158733Y0208127D02*
X0157017Y0208838D01*
X0155704Y0210151D01*
X0154993Y0211867D01*
X0154993Y0213724D01*
X0155704Y0215440D01*
X0157017Y0216753D01*
X0158733Y0217464D01*
X0160590Y0217464D01*
X0162306Y0216753D01*
X0163619Y0215440D01*
X0164330Y0213724D01*
X0164330Y0211867D01*
X0163619Y0210151D01*
X0162306Y0208838D01*
X0160590Y0208127D01*
X0158733Y0208127D01*
X0161139Y0208354D02*
X0168184Y0208354D01*
X0168733Y0208127D02*
X0170590Y0208127D01*
X0172306Y0208838D01*
X0173619Y0210151D01*
X0174330Y0211867D01*
X0174330Y0213724D01*
X0173619Y0215440D01*
X0172306Y0216753D01*
X0170590Y0217464D01*
X0168733Y0217464D01*
X0167017Y0216753D01*
X0165704Y0215440D01*
X0164993Y0213724D01*
X0164993Y0211867D01*
X0165704Y0210151D01*
X0167017Y0208838D01*
X0168733Y0208127D01*
X0171139Y0208354D02*
X0178184Y0208354D01*
X0178733Y0208127D02*
X0177017Y0208838D01*
X0175704Y0210151D01*
X0174993Y0211867D01*
X0174993Y0213724D01*
X0175704Y0215440D01*
X0177017Y0216753D01*
X0178733Y0217464D01*
X0180590Y0217464D01*
X0182306Y0216753D01*
X0183619Y0215440D01*
X0184330Y0213724D01*
X0184330Y0211867D01*
X0183619Y0210151D01*
X0182306Y0208838D01*
X0180590Y0208127D01*
X0178733Y0208127D01*
X0181139Y0208354D02*
X0188184Y0208354D01*
X0188733Y0208127D02*
X0190590Y0208127D01*
X0192306Y0208838D01*
X0193619Y0210151D01*
X0194330Y0211867D01*
X0194330Y0213724D01*
X0193619Y0215440D01*
X0192306Y0216753D01*
X0190590Y0217464D01*
X0188733Y0217464D01*
X0187017Y0216753D01*
X0185704Y0215440D01*
X0184993Y0213724D01*
X0184993Y0211867D01*
X0185704Y0210151D01*
X0187017Y0208838D01*
X0188733Y0208127D01*
X0191139Y0208354D02*
X0198184Y0208354D01*
X0198733Y0208127D02*
X0197017Y0208838D01*
X0195704Y0210151D01*
X0194993Y0211867D01*
X0194993Y0213724D01*
X0195704Y0215440D01*
X0197017Y0216753D01*
X0198733Y0217464D01*
X0200590Y0217464D01*
X0202306Y0216753D01*
X0203619Y0215440D01*
X0204330Y0213724D01*
X0204330Y0211867D01*
X0203619Y0210151D01*
X0202306Y0208838D01*
X0200590Y0208127D01*
X0198733Y0208127D01*
X0201139Y0208354D02*
X0208184Y0208354D01*
X0208733Y0208127D02*
X0210590Y0208127D01*
X0212306Y0208838D01*
X0213619Y0210151D01*
X0214330Y0211867D01*
X0214330Y0213724D01*
X0213619Y0215440D01*
X0212306Y0216753D01*
X0210590Y0217464D01*
X0208733Y0217464D01*
X0207017Y0216753D01*
X0205704Y0215440D01*
X0204993Y0213724D01*
X0204993Y0211867D01*
X0205704Y0210151D01*
X0207017Y0208838D01*
X0208733Y0208127D01*
X0211139Y0208354D02*
X0218184Y0208354D01*
X0218733Y0208127D02*
X0217017Y0208838D01*
X0215704Y0210151D01*
X0214993Y0211867D01*
X0214993Y0213724D01*
X0215704Y0215440D01*
X0217017Y0216753D01*
X0218733Y0217464D01*
X0220590Y0217464D01*
X0222306Y0216753D01*
X0223619Y0215440D01*
X0224330Y0213724D01*
X0224330Y0211867D01*
X0223619Y0210151D01*
X0222306Y0208838D01*
X0220590Y0208127D01*
X0218733Y0208127D01*
X0218615Y0207154D02*
X0217946Y0206936D01*
X0217319Y0206617D01*
X0216750Y0206204D01*
X0216253Y0205706D01*
X0215840Y0205137D01*
X0215520Y0204511D01*
X0215303Y0203842D01*
X0215214Y0203280D01*
X0219177Y0203280D01*
X0219177Y0207243D01*
X0218615Y0207154D01*
X0219177Y0206357D02*
X0220146Y0206357D01*
X0220146Y0207243D02*
X0220146Y0203280D01*
X0219177Y0203280D01*
X0219177Y0202311D01*
X0215214Y0202311D01*
X0215303Y0201749D01*
X0215520Y0201080D01*
X0215840Y0200453D01*
X0216253Y0199884D01*
X0216750Y0199387D01*
X0217319Y0198973D01*
X0217946Y0198654D01*
X0218615Y0198437D01*
X0219177Y0198348D01*
X0219177Y0202311D01*
X0220146Y0202311D01*
X0220146Y0203280D01*
X0224109Y0203280D01*
X0224020Y0203842D01*
X0223803Y0204511D01*
X0223483Y0205137D01*
X0223070Y0205706D01*
X0222572Y0206204D01*
X0222003Y0206617D01*
X0221377Y0206936D01*
X0220708Y0207154D01*
X0220146Y0207243D01*
X0221139Y0208354D02*
X0228184Y0208354D01*
X0228733Y0208127D02*
X0230590Y0208127D01*
X0232306Y0208838D01*
X0233619Y0210151D01*
X0234330Y0211867D01*
X0234330Y0213724D01*
X0233619Y0215440D01*
X0232306Y0216753D01*
X0230590Y0217464D01*
X0228733Y0217464D01*
X0227017Y0216753D01*
X0225704Y0215440D01*
X0224993Y0213724D01*
X0224993Y0211867D01*
X0225704Y0210151D01*
X0227017Y0208838D01*
X0228733Y0208127D01*
X0231139Y0208354D02*
X0340759Y0208354D01*
X0340075Y0213347D02*
X0234330Y0213347D01*
X0234330Y0212348D02*
X0386764Y0212348D01*
X0386764Y0211350D02*
X0234116Y0211350D01*
X0233702Y0210351D02*
X0386764Y0210351D01*
X0386764Y0209353D02*
X0232821Y0209353D01*
X0226502Y0209353D02*
X0222821Y0209353D01*
X0223702Y0210351D02*
X0225621Y0210351D01*
X0225207Y0211350D02*
X0224116Y0211350D01*
X0224330Y0212348D02*
X0224993Y0212348D01*
X0224993Y0213347D02*
X0224330Y0213347D01*
X0224073Y0214345D02*
X0225250Y0214345D01*
X0225664Y0215344D02*
X0223659Y0215344D01*
X0222717Y0216342D02*
X0226606Y0216342D01*
X0228436Y0217341D02*
X0220887Y0217341D01*
X0220590Y0218127D02*
X0222306Y0218838D01*
X0223619Y0220151D01*
X0224330Y0221867D01*
X0224330Y0223724D01*
X0223619Y0225440D01*
X0222306Y0226753D01*
X0220590Y0227464D01*
X0218733Y0227464D01*
X0217017Y0226753D01*
X0215704Y0225440D01*
X0214993Y0223724D01*
X0214993Y0221867D01*
X0215704Y0220151D01*
X0217017Y0218838D01*
X0218733Y0218127D01*
X0220590Y0218127D01*
X0221103Y0218339D02*
X0228220Y0218339D01*
X0228733Y0218127D02*
X0230590Y0218127D01*
X0232306Y0218838D01*
X0233619Y0220151D01*
X0234330Y0221867D01*
X0234330Y0223724D01*
X0233619Y0225440D01*
X0232306Y0226753D01*
X0230590Y0227464D01*
X0228733Y0227464D01*
X0227017Y0226753D01*
X0225704Y0225440D01*
X0224993Y0223724D01*
X0224993Y0221867D01*
X0225704Y0220151D01*
X0227017Y0218838D01*
X0228733Y0218127D01*
X0230887Y0217341D02*
X0337792Y0217341D01*
X0337792Y0218339D02*
X0231103Y0218339D01*
X0232806Y0219338D02*
X0338105Y0219338D01*
X0338518Y0220336D02*
X0233696Y0220336D01*
X0234110Y0221335D02*
X0339479Y0221335D01*
X0341241Y0222333D02*
X0234330Y0222333D01*
X0234330Y0223332D02*
X0386764Y0223332D01*
X0386764Y0224330D02*
X0234079Y0224330D01*
X0233665Y0225329D02*
X0386764Y0225329D01*
X0386764Y0226327D02*
X0232732Y0226327D01*
X0230923Y0227326D02*
X0386764Y0227326D01*
X0386764Y0228324D02*
X0212361Y0228324D01*
X0212361Y0227326D02*
X0218400Y0227326D01*
X0216591Y0226327D02*
X0212732Y0226327D01*
X0212361Y0226698D02*
X0212361Y0242132D01*
X0211073Y0243420D01*
X0207136Y0247357D01*
X0186281Y0247357D01*
X0187489Y0247858D01*
X0188811Y0249180D01*
X0189527Y0250908D01*
X0189527Y0258777D01*
X0188878Y0260343D01*
X0191081Y0260343D01*
X0190978Y0260201D01*
X0190656Y0259570D01*
X0190438Y0258896D01*
X0190327Y0258197D01*
X0190327Y0255342D01*
X0194327Y0255342D01*
X0194327Y0254343D01*
X0190327Y0254343D01*
X0190327Y0251488D01*
X0190438Y0250789D01*
X0190656Y0250115D01*
X0190978Y0249484D01*
X0191394Y0248911D01*
X0191895Y0248410D01*
X0192468Y0247994D01*
X0193099Y0247672D01*
X0193773Y0247453D01*
X0194327Y0247366D01*
X0194327Y0254342D01*
X0195327Y0254342D01*
X0195327Y0247366D01*
X0195881Y0247453D01*
X0196554Y0247672D01*
X0197185Y0247994D01*
X0197758Y0248410D01*
X0198259Y0248911D01*
X0198676Y0249484D01*
X0198997Y0250115D01*
X0199216Y0250789D01*
X0199327Y0251488D01*
X0199327Y0254343D01*
X0195327Y0254343D01*
X0195327Y0255342D01*
X0199327Y0255342D01*
X0199327Y0258197D01*
X0199216Y0258896D01*
X0198997Y0259570D01*
X0198676Y0260201D01*
X0198573Y0260343D01*
X0372505Y0260343D01*
X0371737Y0259012D01*
X0371028Y0256368D01*
X0371028Y0253632D01*
X0371737Y0250988D01*
X0373105Y0248619D01*
X0375040Y0246684D01*
X0377410Y0245315D01*
X0380053Y0244607D01*
X0382790Y0244607D01*
X0385433Y0245315D01*
X0386764Y0246084D01*
X0386764Y0047381D01*
X0385433Y0048149D01*
X0382790Y0048857D01*
X0380053Y0048857D01*
X0377410Y0048149D01*
X0375040Y0046781D01*
X0373105Y0044846D01*
X0371737Y0042476D01*
X0371028Y0039833D01*
X0371028Y0037096D01*
X0371737Y0034453D01*
X0372505Y0033122D01*
X0024196Y0033122D01*
X0024964Y0034453D01*
X0025672Y0037096D01*
X0025672Y0039833D01*
X0024964Y0042476D01*
X0023596Y0044846D01*
X0021661Y0046781D01*
X0019291Y0048149D01*
X0016648Y0048857D01*
X0013911Y0048857D01*
X0011268Y0048149D01*
X0009937Y0047381D01*
X0009937Y0246084D01*
X0011268Y0245315D01*
X0013911Y0244607D01*
X0016648Y0244607D01*
X0019291Y0245315D01*
X0021661Y0246684D01*
X0023596Y0248619D01*
X0024964Y0250988D01*
X0025672Y0253632D01*
X0025672Y0256368D01*
X0024964Y0259012D01*
X0024196Y0260343D01*
X0041081Y0260343D01*
X0040978Y0260201D01*
X0040656Y0259570D01*
X0040438Y0258896D01*
X0040327Y0258197D01*
X0040327Y0255342D01*
X0044327Y0255342D01*
X0044327Y0254343D01*
X0040327Y0254343D01*
X0040327Y0251488D01*
X0040438Y0250789D01*
X0040656Y0250115D01*
X0040978Y0249484D01*
X0041394Y0248911D01*
X0041895Y0248410D01*
X0042468Y0247994D01*
X0043099Y0247672D01*
X0043773Y0247453D01*
X0044327Y0247366D01*
X0044327Y0254342D01*
X0045327Y0254342D01*
X0045327Y0247366D01*
X0045881Y0247453D01*
X0046554Y0247672D01*
X0047185Y0247994D01*
X0047758Y0248410D01*
X0048259Y0248911D01*
X0048676Y0249484D01*
X0048997Y0250115D01*
X0049216Y0250789D01*
X0049327Y0251488D01*
X0049327Y0254343D01*
X0045327Y0254343D01*
X0045327Y0255342D01*
X0049327Y0255342D01*
X0049327Y0258197D01*
X0049216Y0258896D01*
X0048997Y0259570D01*
X0048676Y0260201D01*
X0048573Y0260343D01*
X0050775Y0260343D01*
X0050127Y0258777D01*
X0050127Y0250908D01*
X0050842Y0249180D01*
X0052164Y0247858D01*
X0053892Y0247143D01*
X0055762Y0247143D01*
X0057489Y0247858D01*
X0058811Y0249180D01*
X0059527Y0250908D01*
X0059527Y0258777D01*
X0058878Y0260343D01*
X0060775Y0260343D01*
X0060127Y0258777D01*
X0060127Y0250908D01*
X0060842Y0249180D01*
X0062164Y0247858D01*
X0063892Y0247143D01*
X0065762Y0247143D01*
X0067489Y0247858D01*
X0068811Y0249180D01*
X0069527Y0250908D01*
X0069527Y0258777D01*
X0068878Y0260343D01*
X0070775Y0260343D01*
X0070127Y0258777D01*
X0070127Y0250908D01*
X0070842Y0249180D01*
X0072164Y0247858D01*
X0072627Y0247667D01*
X0072627Y0245723D01*
X0080009Y0238341D01*
X0081297Y0237052D01*
X0140352Y0237052D01*
X0149941Y0227464D01*
X0148733Y0227464D01*
X0147017Y0226753D01*
X0145704Y0225440D01*
X0144993Y0223724D01*
X0144993Y0221867D01*
X0145704Y0220151D01*
X0147017Y0218838D01*
X0148733Y0218127D01*
X0150590Y0218127D01*
X0152306Y0218838D01*
X0153619Y0220151D01*
X0154330Y0221867D01*
X0154330Y0223724D01*
X0153619Y0225440D01*
X0152306Y0226753D01*
X0151204Y0227209D01*
X0152164Y0227209D01*
X0155185Y0224188D01*
X0154993Y0223724D01*
X0154993Y0221867D01*
X0155704Y0220151D01*
X0157017Y0218838D01*
X0158733Y0218127D01*
X0160590Y0218127D01*
X0162306Y0218838D01*
X0163619Y0220151D01*
X0164330Y0221867D01*
X0164330Y0223724D01*
X0163619Y0225440D01*
X0162306Y0226753D01*
X0161204Y0227209D01*
X0165943Y0227209D01*
X0166708Y0226444D01*
X0165704Y0225440D01*
X0164993Y0223724D01*
X0164993Y0221867D01*
X0165704Y0220151D01*
X0167017Y0218838D01*
X0168733Y0218127D01*
X0170590Y0218127D01*
X0172306Y0218838D01*
X0173619Y0220151D01*
X0174330Y0221867D01*
X0174330Y0223724D01*
X0173619Y0225440D01*
X0172306Y0226753D01*
X0171861Y0226937D01*
X0171861Y0227514D01*
X0168229Y0231146D01*
X0175786Y0231146D01*
X0177461Y0229471D01*
X0177461Y0226937D01*
X0177017Y0226753D01*
X0175704Y0225440D01*
X0174993Y0223724D01*
X0174993Y0221867D01*
X0175704Y0220151D01*
X0177017Y0218838D01*
X0178733Y0218127D01*
X0180590Y0218127D01*
X0182306Y0218838D01*
X0183619Y0220151D01*
X0184330Y0221867D01*
X0184330Y0223724D01*
X0183619Y0225440D01*
X0182306Y0226753D01*
X0181861Y0226937D01*
X0181861Y0231293D01*
X0178071Y0235083D01*
X0185628Y0235083D01*
X0188276Y0232435D01*
X0188276Y0227275D01*
X0187017Y0226753D01*
X0185704Y0225440D01*
X0184993Y0223724D01*
X0184993Y0221867D01*
X0185704Y0220151D01*
X0187017Y0218838D01*
X0188733Y0218127D01*
X0190590Y0218127D01*
X0192306Y0218838D01*
X0193619Y0220151D01*
X0194330Y0221867D01*
X0194330Y0223724D01*
X0193619Y0225440D01*
X0192676Y0226383D01*
X0192676Y0234258D01*
X0191388Y0235546D01*
X0187914Y0239020D01*
X0195471Y0239020D01*
X0198119Y0236372D01*
X0198119Y0227209D01*
X0197017Y0226753D01*
X0195704Y0225440D01*
X0194993Y0223724D01*
X0194993Y0221867D01*
X0195704Y0220151D01*
X0197017Y0218838D01*
X0198733Y0218127D01*
X0200590Y0218127D01*
X0202306Y0218838D01*
X0203619Y0220151D01*
X0204330Y0221867D01*
X0204330Y0223724D01*
X0203619Y0225440D01*
X0202519Y0226540D01*
X0202519Y0238195D01*
X0201230Y0239483D01*
X0197756Y0242957D01*
X0205313Y0242957D01*
X0207961Y0240309D01*
X0207961Y0227144D01*
X0207017Y0226753D01*
X0205704Y0225440D01*
X0204993Y0223724D01*
X0204993Y0221867D01*
X0205704Y0220151D01*
X0207017Y0218838D01*
X0208733Y0218127D01*
X0210590Y0218127D01*
X0212306Y0218838D01*
X0213619Y0220151D01*
X0214330Y0221867D01*
X0214330Y0223724D01*
X0213619Y0225440D01*
X0212361Y0226698D01*
X0213665Y0225329D02*
X0215658Y0225329D01*
X0215244Y0224330D02*
X0214079Y0224330D01*
X0214330Y0223332D02*
X0214993Y0223332D01*
X0214993Y0222333D02*
X0214330Y0222333D01*
X0214110Y0221335D02*
X0215213Y0221335D01*
X0215627Y0220336D02*
X0213696Y0220336D01*
X0212806Y0219338D02*
X0216517Y0219338D01*
X0218220Y0218339D02*
X0211103Y0218339D01*
X0210887Y0217341D02*
X0218436Y0217341D01*
X0216606Y0216342D02*
X0212717Y0216342D01*
X0213659Y0215344D02*
X0215664Y0215344D01*
X0215250Y0214345D02*
X0214073Y0214345D01*
X0214330Y0213347D02*
X0214993Y0213347D01*
X0214993Y0212348D02*
X0214330Y0212348D01*
X0214116Y0211350D02*
X0215207Y0211350D01*
X0215621Y0210351D02*
X0213702Y0210351D01*
X0212821Y0209353D02*
X0216502Y0209353D01*
X0216962Y0206357D02*
X0009937Y0206357D01*
X0009937Y0205359D02*
X0216000Y0205359D01*
X0215471Y0204360D02*
X0009937Y0204360D01*
X0009937Y0203362D02*
X0215227Y0203362D01*
X0215428Y0201365D02*
X0009937Y0201365D01*
X0009937Y0202363D02*
X0219177Y0202363D01*
X0220146Y0202363D02*
X0229177Y0202363D01*
X0229177Y0201365D02*
X0230146Y0201365D01*
X0230146Y0200366D02*
X0229177Y0200366D01*
X0229177Y0199367D02*
X0230146Y0199367D01*
X0230146Y0198369D02*
X0229177Y0198369D01*
X0229043Y0198369D02*
X0220280Y0198369D01*
X0220146Y0198369D02*
X0219177Y0198369D01*
X0219043Y0198369D02*
X0009937Y0198369D01*
X0009937Y0199367D02*
X0216777Y0199367D01*
X0215903Y0200366D02*
X0009937Y0200366D01*
X0009937Y0197370D02*
X0218508Y0197370D01*
X0218733Y0197464D02*
X0217017Y0196753D01*
X0215704Y0195440D01*
X0214993Y0193724D01*
X0214993Y0191867D01*
X0215704Y0190151D01*
X0217017Y0188838D01*
X0218733Y0188127D01*
X0220590Y0188127D01*
X0222306Y0188838D01*
X0223619Y0190151D01*
X0224330Y0191867D01*
X0224330Y0193724D01*
X0223619Y0195440D01*
X0222306Y0196753D01*
X0220590Y0197464D01*
X0218733Y0197464D01*
X0220146Y0198348D02*
X0220708Y0198437D01*
X0221377Y0198654D01*
X0222003Y0198973D01*
X0222572Y0199387D01*
X0223070Y0199884D01*
X0223483Y0200453D01*
X0223803Y0201080D01*
X0224020Y0201749D01*
X0224109Y0202311D01*
X0220146Y0202311D01*
X0220146Y0198348D01*
X0220146Y0199367D02*
X0219177Y0199367D01*
X0219177Y0200366D02*
X0220146Y0200366D01*
X0220146Y0201365D02*
X0219177Y0201365D01*
X0219177Y0203362D02*
X0220146Y0203362D01*
X0220146Y0204360D02*
X0219177Y0204360D01*
X0219177Y0205359D02*
X0220146Y0205359D01*
X0222361Y0206357D02*
X0226962Y0206357D01*
X0226000Y0205359D02*
X0223322Y0205359D01*
X0223851Y0204360D02*
X0225471Y0204360D01*
X0225227Y0203362D02*
X0224096Y0203362D01*
X0223895Y0201365D02*
X0225428Y0201365D01*
X0225903Y0200366D02*
X0223420Y0200366D01*
X0222546Y0199367D02*
X0226777Y0199367D01*
X0227017Y0196753D02*
X0228733Y0197464D01*
X0230590Y0197464D01*
X0232306Y0196753D01*
X0233619Y0195440D01*
X0234330Y0193724D01*
X0234330Y0191867D01*
X0233619Y0190151D01*
X0232306Y0188838D01*
X0230590Y0188127D01*
X0228733Y0188127D01*
X0227017Y0188838D01*
X0225704Y0190151D01*
X0224993Y0191867D01*
X0224993Y0193724D01*
X0225704Y0195440D01*
X0227017Y0196753D01*
X0226636Y0196372D02*
X0222687Y0196372D01*
X0223647Y0195373D02*
X0225676Y0195373D01*
X0225263Y0194375D02*
X0224060Y0194375D01*
X0224330Y0193376D02*
X0224993Y0193376D01*
X0224993Y0192378D02*
X0224330Y0192378D01*
X0224128Y0191379D02*
X0225195Y0191379D01*
X0225608Y0190381D02*
X0223714Y0190381D01*
X0222851Y0189382D02*
X0226472Y0189382D01*
X0228112Y0188384D02*
X0221211Y0188384D01*
X0220779Y0187385D02*
X0228543Y0187385D01*
X0228733Y0187464D02*
X0227017Y0186753D01*
X0225704Y0185440D01*
X0224993Y0183724D01*
X0224993Y0181867D01*
X0225704Y0180151D01*
X0227017Y0178838D01*
X0228733Y0178127D01*
X0230590Y0178127D01*
X0232306Y0178838D01*
X0233619Y0180151D01*
X0234330Y0181867D01*
X0234330Y0183724D01*
X0233619Y0185440D01*
X0232306Y0186753D01*
X0230590Y0187464D01*
X0228733Y0187464D01*
X0230779Y0187385D02*
X0386764Y0187385D01*
X0386764Y0186387D02*
X0232672Y0186387D01*
X0233640Y0185388D02*
X0386764Y0185388D01*
X0386764Y0184390D02*
X0234054Y0184390D01*
X0234330Y0183391D02*
X0386764Y0183391D01*
X0386764Y0182393D02*
X0234330Y0182393D01*
X0234134Y0181394D02*
X0386764Y0181394D01*
X0386764Y0180396D02*
X0233721Y0180396D01*
X0232866Y0179397D02*
X0386764Y0179397D01*
X0386764Y0178399D02*
X0368563Y0178399D01*
X0368476Y0178486D02*
X0366657Y0179239D01*
X0364689Y0179239D01*
X0362870Y0178486D01*
X0361478Y0177094D01*
X0360725Y0175276D01*
X0360725Y0173307D01*
X0361478Y0171488D01*
X0362870Y0170097D01*
X0364689Y0169343D01*
X0366657Y0169343D01*
X0368476Y0170097D01*
X0369868Y0171488D01*
X0370621Y0173307D01*
X0370621Y0175276D01*
X0369868Y0177094D01*
X0368476Y0178486D01*
X0369562Y0177400D02*
X0386764Y0177400D01*
X0386764Y0176402D02*
X0370155Y0176402D01*
X0370568Y0175403D02*
X0386764Y0175403D01*
X0386764Y0174405D02*
X0370621Y0174405D01*
X0370621Y0173406D02*
X0386764Y0173406D01*
X0386764Y0172408D02*
X0370249Y0172408D01*
X0369789Y0171409D02*
X0386764Y0171409D01*
X0386764Y0170411D02*
X0368790Y0170411D01*
X0366824Y0169412D02*
X0386764Y0169412D01*
X0386764Y0168414D02*
X0231283Y0168414D01*
X0230590Y0168127D02*
X0232306Y0168838D01*
X0233619Y0170151D01*
X0234330Y0171867D01*
X0234330Y0173724D01*
X0233619Y0175440D01*
X0232306Y0176753D01*
X0230590Y0177464D01*
X0228733Y0177464D01*
X0227017Y0176753D01*
X0225704Y0175440D01*
X0224993Y0173724D01*
X0224993Y0171867D01*
X0225704Y0170151D01*
X0227017Y0168838D01*
X0228733Y0168127D01*
X0230590Y0168127D01*
X0228040Y0168414D02*
X0221283Y0168414D01*
X0220590Y0168127D02*
X0222306Y0168838D01*
X0223619Y0170151D01*
X0224330Y0171867D01*
X0224330Y0173724D01*
X0223619Y0175440D01*
X0222306Y0176753D01*
X0220590Y0177464D01*
X0218733Y0177464D01*
X0217017Y0176753D01*
X0215704Y0175440D01*
X0214993Y0173724D01*
X0214993Y0171867D01*
X0215704Y0170151D01*
X0217017Y0168838D01*
X0218733Y0168127D01*
X0220590Y0168127D01*
X0218040Y0168414D02*
X0009937Y0168414D01*
X0009937Y0169412D02*
X0216442Y0169412D01*
X0215596Y0170411D02*
X0009937Y0170411D01*
X0009937Y0171409D02*
X0215182Y0171409D01*
X0214993Y0172408D02*
X0009937Y0172408D01*
X0009937Y0173406D02*
X0214993Y0173406D01*
X0215275Y0174405D02*
X0009937Y0174405D01*
X0009937Y0175403D02*
X0215689Y0175403D01*
X0216666Y0176402D02*
X0009937Y0176402D01*
X0009937Y0177400D02*
X0218579Y0177400D01*
X0218733Y0178127D02*
X0220590Y0178127D01*
X0222306Y0178838D01*
X0223619Y0180151D01*
X0224330Y0181867D01*
X0224330Y0183724D01*
X0223619Y0185440D01*
X0222306Y0186753D01*
X0220590Y0187464D01*
X0218733Y0187464D01*
X0217017Y0186753D01*
X0215704Y0185440D01*
X0214993Y0183724D01*
X0214993Y0181867D01*
X0215704Y0180151D01*
X0217017Y0178838D01*
X0218733Y0178127D01*
X0218076Y0178399D02*
X0009937Y0178399D01*
X0009937Y0179397D02*
X0216457Y0179397D01*
X0215602Y0180396D02*
X0009937Y0180396D01*
X0009937Y0181394D02*
X0215189Y0181394D01*
X0214993Y0182393D02*
X0009937Y0182393D01*
X0009937Y0183391D02*
X0214993Y0183391D01*
X0215269Y0184390D02*
X0009937Y0184390D01*
X0009937Y0185388D02*
X0215682Y0185388D01*
X0216651Y0186387D02*
X0009937Y0186387D01*
X0009937Y0187385D02*
X0218543Y0187385D01*
X0218112Y0188384D02*
X0009937Y0188384D01*
X0009937Y0189382D02*
X0216472Y0189382D01*
X0215608Y0190381D02*
X0009937Y0190381D01*
X0009937Y0191379D02*
X0215195Y0191379D01*
X0214993Y0192378D02*
X0009937Y0192378D01*
X0009937Y0193376D02*
X0214993Y0193376D01*
X0215263Y0194375D02*
X0009937Y0194375D01*
X0009937Y0195373D02*
X0215676Y0195373D01*
X0216636Y0196372D02*
X0009937Y0196372D01*
X0009937Y0209353D02*
X0026798Y0209353D01*
X0025914Y0210351D02*
X0009937Y0210351D01*
X0009937Y0211350D02*
X0025433Y0211350D01*
X0025225Y0213347D02*
X0009937Y0213347D01*
X0009937Y0214345D02*
X0025467Y0214345D01*
X0025990Y0215344D02*
X0009937Y0215344D01*
X0009937Y0216342D02*
X0026941Y0216342D01*
X0029177Y0216342D02*
X0030146Y0216342D01*
X0030146Y0217243D02*
X0030146Y0213280D01*
X0034109Y0213280D01*
X0034020Y0213842D01*
X0033803Y0214511D01*
X0033483Y0215137D01*
X0033070Y0215706D01*
X0032572Y0216204D01*
X0032003Y0216617D01*
X0031377Y0216936D01*
X0030708Y0217154D01*
X0030146Y0217243D01*
X0030590Y0218127D02*
X0032306Y0218838D01*
X0033619Y0220151D01*
X0034330Y0221867D01*
X0034330Y0223724D01*
X0033619Y0225440D01*
X0032306Y0226753D01*
X0030590Y0227464D01*
X0028733Y0227464D01*
X0027017Y0226753D01*
X0025704Y0225440D01*
X0024993Y0223724D01*
X0024993Y0221867D01*
X0025704Y0220151D01*
X0027017Y0218838D01*
X0028733Y0218127D01*
X0030590Y0218127D01*
X0031103Y0218339D02*
X0038220Y0218339D01*
X0038733Y0218127D02*
X0040590Y0218127D01*
X0042306Y0218838D01*
X0043619Y0220151D01*
X0044330Y0221867D01*
X0044330Y0223724D01*
X0043619Y0225440D01*
X0042306Y0226753D01*
X0040590Y0227464D01*
X0038733Y0227464D01*
X0037017Y0226753D01*
X0035704Y0225440D01*
X0034993Y0223724D01*
X0034993Y0221867D01*
X0035704Y0220151D01*
X0037017Y0218838D01*
X0038733Y0218127D01*
X0038436Y0217341D02*
X0009937Y0217341D01*
X0009937Y0218339D02*
X0028220Y0218339D01*
X0026517Y0219338D02*
X0009937Y0219338D01*
X0009937Y0220336D02*
X0025627Y0220336D01*
X0025213Y0221335D02*
X0009937Y0221335D01*
X0009937Y0222333D02*
X0024993Y0222333D01*
X0024993Y0223332D02*
X0009937Y0223332D01*
X0009937Y0224330D02*
X0025244Y0224330D01*
X0025658Y0225329D02*
X0009937Y0225329D01*
X0009937Y0226327D02*
X0026591Y0226327D01*
X0028400Y0227326D02*
X0009937Y0227326D01*
X0009937Y0228324D02*
X0149080Y0228324D01*
X0148400Y0227326D02*
X0140923Y0227326D01*
X0140590Y0227464D02*
X0138733Y0227464D01*
X0137017Y0226753D01*
X0135704Y0225440D01*
X0134993Y0223724D01*
X0134993Y0221867D01*
X0135704Y0220151D01*
X0137017Y0218838D01*
X0138733Y0218127D01*
X0140590Y0218127D01*
X0142306Y0218838D01*
X0143619Y0220151D01*
X0144330Y0221867D01*
X0144330Y0223724D01*
X0143619Y0225440D01*
X0142306Y0226753D01*
X0140590Y0227464D01*
X0138400Y0227326D02*
X0130923Y0227326D01*
X0130590Y0227464D02*
X0132306Y0226753D01*
X0133619Y0225440D01*
X0134330Y0223724D01*
X0134330Y0221867D01*
X0133619Y0220151D01*
X0132306Y0218838D01*
X0130590Y0218127D01*
X0128733Y0218127D01*
X0127017Y0218838D01*
X0125704Y0220151D01*
X0124993Y0221867D01*
X0124993Y0223724D01*
X0125704Y0225440D01*
X0127017Y0226753D01*
X0128733Y0227464D01*
X0130590Y0227464D01*
X0128400Y0227326D02*
X0120923Y0227326D01*
X0120590Y0227464D02*
X0118733Y0227464D01*
X0117017Y0226753D01*
X0115704Y0225440D01*
X0114993Y0223724D01*
X0114993Y0221867D01*
X0115704Y0220151D01*
X0117017Y0218838D01*
X0118733Y0218127D01*
X0120590Y0218127D01*
X0122306Y0218838D01*
X0123619Y0220151D01*
X0124330Y0221867D01*
X0124330Y0223724D01*
X0123619Y0225440D01*
X0122306Y0226753D01*
X0120590Y0227464D01*
X0118400Y0227326D02*
X0110923Y0227326D01*
X0110590Y0227464D02*
X0108733Y0227464D01*
X0107017Y0226753D01*
X0105704Y0225440D01*
X0104993Y0223724D01*
X0104993Y0221867D01*
X0105704Y0220151D01*
X0107017Y0218838D01*
X0108733Y0218127D01*
X0110590Y0218127D01*
X0112306Y0218838D01*
X0113619Y0220151D01*
X0114330Y0221867D01*
X0114330Y0223724D01*
X0113619Y0225440D01*
X0112306Y0226753D01*
X0110590Y0227464D01*
X0108400Y0227326D02*
X0100923Y0227326D01*
X0100590Y0227464D02*
X0098733Y0227464D01*
X0097017Y0226753D01*
X0095704Y0225440D01*
X0094993Y0223724D01*
X0094993Y0221867D01*
X0095704Y0220151D01*
X0097017Y0218838D01*
X0098733Y0218127D01*
X0100590Y0218127D01*
X0102306Y0218838D01*
X0103619Y0220151D01*
X0104330Y0221867D01*
X0104330Y0223724D01*
X0103619Y0225440D01*
X0102306Y0226753D01*
X0100590Y0227464D01*
X0098400Y0227326D02*
X0090923Y0227326D01*
X0090590Y0227464D02*
X0088733Y0227464D01*
X0087017Y0226753D01*
X0085704Y0225440D01*
X0084993Y0223724D01*
X0084993Y0221867D01*
X0085704Y0220151D01*
X0087017Y0218838D01*
X0088733Y0218127D01*
X0090590Y0218127D01*
X0092306Y0218838D01*
X0093619Y0220151D01*
X0094330Y0221867D01*
X0094330Y0223724D01*
X0093619Y0225440D01*
X0092306Y0226753D01*
X0090590Y0227464D01*
X0088400Y0227326D02*
X0080923Y0227326D01*
X0080590Y0227464D02*
X0078733Y0227464D01*
X0077017Y0226753D01*
X0075704Y0225440D01*
X0074993Y0223724D01*
X0074993Y0221867D01*
X0075704Y0220151D01*
X0077017Y0218838D01*
X0078733Y0218127D01*
X0080590Y0218127D01*
X0082306Y0218838D01*
X0083619Y0220151D01*
X0084330Y0221867D01*
X0084330Y0223724D01*
X0083619Y0225440D01*
X0082306Y0226753D01*
X0080590Y0227464D01*
X0078400Y0227326D02*
X0070923Y0227326D01*
X0070590Y0227464D02*
X0068733Y0227464D01*
X0067017Y0226753D01*
X0065704Y0225440D01*
X0064993Y0223724D01*
X0064993Y0221867D01*
X0065704Y0220151D01*
X0067017Y0218838D01*
X0068733Y0218127D01*
X0070590Y0218127D01*
X0072306Y0218838D01*
X0073619Y0220151D01*
X0074330Y0221867D01*
X0074330Y0223724D01*
X0073619Y0225440D01*
X0072306Y0226753D01*
X0070590Y0227464D01*
X0068400Y0227326D02*
X0050923Y0227326D01*
X0050590Y0227464D02*
X0048733Y0227464D01*
X0047017Y0226753D01*
X0045704Y0225440D01*
X0044993Y0223724D01*
X0044993Y0221867D01*
X0045704Y0220151D01*
X0047017Y0218838D01*
X0048733Y0218127D01*
X0050590Y0218127D01*
X0052306Y0218838D01*
X0053619Y0220151D01*
X0054330Y0221867D01*
X0054330Y0223724D01*
X0053619Y0225440D01*
X0052306Y0226753D01*
X0050590Y0227464D01*
X0048400Y0227326D02*
X0040923Y0227326D01*
X0042732Y0226327D02*
X0046591Y0226327D01*
X0045658Y0225329D02*
X0043665Y0225329D01*
X0044079Y0224330D02*
X0045244Y0224330D01*
X0044993Y0223332D02*
X0044330Y0223332D01*
X0044330Y0222333D02*
X0044993Y0222333D01*
X0045213Y0221335D02*
X0044110Y0221335D01*
X0043696Y0220336D02*
X0045627Y0220336D01*
X0046517Y0219338D02*
X0042806Y0219338D01*
X0041103Y0218339D02*
X0048220Y0218339D01*
X0048436Y0217341D02*
X0040887Y0217341D01*
X0042717Y0216342D02*
X0046606Y0216342D01*
X0045664Y0215344D02*
X0043659Y0215344D01*
X0044073Y0214345D02*
X0045250Y0214345D01*
X0044993Y0213347D02*
X0044330Y0213347D01*
X0044330Y0212348D02*
X0044993Y0212348D01*
X0045207Y0211350D02*
X0044116Y0211350D01*
X0043702Y0210351D02*
X0045621Y0210351D01*
X0046502Y0209353D02*
X0042821Y0209353D01*
X0036502Y0209353D02*
X0032525Y0209353D01*
X0033409Y0210351D02*
X0035621Y0210351D01*
X0035207Y0211350D02*
X0033890Y0211350D01*
X0034993Y0212348D02*
X0030146Y0212348D01*
X0029177Y0212348D02*
X0009937Y0212348D01*
X0029177Y0211350D02*
X0030146Y0211350D01*
X0030146Y0210351D02*
X0029177Y0210351D01*
X0029177Y0209353D02*
X0030146Y0209353D01*
X0030146Y0213347D02*
X0029177Y0213347D01*
X0029177Y0214345D02*
X0030146Y0214345D01*
X0030146Y0215344D02*
X0029177Y0215344D01*
X0032382Y0216342D02*
X0036606Y0216342D01*
X0035664Y0215344D02*
X0033333Y0215344D01*
X0033856Y0214345D02*
X0035250Y0214345D01*
X0034993Y0213347D02*
X0034098Y0213347D01*
X0032806Y0219338D02*
X0036517Y0219338D01*
X0035627Y0220336D02*
X0033696Y0220336D01*
X0034110Y0221335D02*
X0035213Y0221335D01*
X0034993Y0222333D02*
X0034330Y0222333D01*
X0034330Y0223332D02*
X0034993Y0223332D01*
X0035244Y0224330D02*
X0034079Y0224330D01*
X0033665Y0225329D02*
X0035658Y0225329D01*
X0036591Y0226327D02*
X0032732Y0226327D01*
X0030923Y0227326D02*
X0038400Y0227326D01*
X0052732Y0226327D02*
X0066591Y0226327D01*
X0065658Y0225329D02*
X0053665Y0225329D01*
X0054079Y0224330D02*
X0065244Y0224330D01*
X0064993Y0223332D02*
X0054330Y0223332D01*
X0054330Y0222333D02*
X0064993Y0222333D01*
X0065213Y0221335D02*
X0054110Y0221335D01*
X0053696Y0220336D02*
X0065627Y0220336D01*
X0066517Y0219338D02*
X0052806Y0219338D01*
X0051103Y0218339D02*
X0068220Y0218339D01*
X0068436Y0217341D02*
X0050887Y0217341D01*
X0052717Y0216342D02*
X0066606Y0216342D01*
X0065664Y0215344D02*
X0053659Y0215344D01*
X0054073Y0214345D02*
X0065250Y0214345D01*
X0064993Y0213347D02*
X0054330Y0213347D01*
X0054330Y0212348D02*
X0064993Y0212348D01*
X0065207Y0211350D02*
X0054116Y0211350D01*
X0053702Y0210351D02*
X0065621Y0210351D01*
X0066502Y0209353D02*
X0052821Y0209353D01*
X0070887Y0217341D02*
X0078436Y0217341D01*
X0078220Y0218339D02*
X0071103Y0218339D01*
X0072806Y0219338D02*
X0076517Y0219338D01*
X0075627Y0220336D02*
X0073696Y0220336D01*
X0074110Y0221335D02*
X0075213Y0221335D01*
X0074993Y0222333D02*
X0074330Y0222333D01*
X0074330Y0223332D02*
X0074993Y0223332D01*
X0075244Y0224330D02*
X0074079Y0224330D01*
X0073665Y0225329D02*
X0075658Y0225329D01*
X0076591Y0226327D02*
X0072732Y0226327D01*
X0082732Y0226327D02*
X0086591Y0226327D01*
X0085658Y0225329D02*
X0083665Y0225329D01*
X0084079Y0224330D02*
X0085244Y0224330D01*
X0084993Y0223332D02*
X0084330Y0223332D01*
X0084330Y0222333D02*
X0084993Y0222333D01*
X0085213Y0221335D02*
X0084110Y0221335D01*
X0083696Y0220336D02*
X0085627Y0220336D01*
X0086517Y0219338D02*
X0082806Y0219338D01*
X0081103Y0218339D02*
X0088220Y0218339D01*
X0088436Y0217341D02*
X0080887Y0217341D01*
X0082717Y0216342D02*
X0086606Y0216342D01*
X0085664Y0215344D02*
X0083659Y0215344D01*
X0084073Y0214345D02*
X0085250Y0214345D01*
X0084993Y0213347D02*
X0084330Y0213347D01*
X0084330Y0212348D02*
X0084993Y0212348D01*
X0085207Y0211350D02*
X0084116Y0211350D01*
X0083702Y0210351D02*
X0085621Y0210351D01*
X0086502Y0209353D02*
X0082821Y0209353D01*
X0076502Y0209353D02*
X0072821Y0209353D01*
X0073702Y0210351D02*
X0075621Y0210351D01*
X0075207Y0211350D02*
X0074116Y0211350D01*
X0074330Y0212348D02*
X0074993Y0212348D01*
X0074993Y0213347D02*
X0074330Y0213347D01*
X0074073Y0214345D02*
X0075250Y0214345D01*
X0075664Y0215344D02*
X0073659Y0215344D01*
X0072717Y0216342D02*
X0076606Y0216342D01*
X0090887Y0217341D02*
X0098436Y0217341D01*
X0098220Y0218339D02*
X0091103Y0218339D01*
X0092806Y0219338D02*
X0096517Y0219338D01*
X0095627Y0220336D02*
X0093696Y0220336D01*
X0094110Y0221335D02*
X0095213Y0221335D01*
X0094993Y0222333D02*
X0094330Y0222333D01*
X0094330Y0223332D02*
X0094993Y0223332D01*
X0095244Y0224330D02*
X0094079Y0224330D01*
X0093665Y0225329D02*
X0095658Y0225329D01*
X0096591Y0226327D02*
X0092732Y0226327D01*
X0102732Y0226327D02*
X0106591Y0226327D01*
X0105658Y0225329D02*
X0103665Y0225329D01*
X0104079Y0224330D02*
X0105244Y0224330D01*
X0104993Y0223332D02*
X0104330Y0223332D01*
X0104330Y0222333D02*
X0104993Y0222333D01*
X0105213Y0221335D02*
X0104110Y0221335D01*
X0103696Y0220336D02*
X0105627Y0220336D01*
X0106517Y0219338D02*
X0102806Y0219338D01*
X0101103Y0218339D02*
X0108220Y0218339D01*
X0108436Y0217341D02*
X0100887Y0217341D01*
X0102717Y0216342D02*
X0106606Y0216342D01*
X0105664Y0215344D02*
X0103659Y0215344D01*
X0104073Y0214345D02*
X0105250Y0214345D01*
X0104993Y0213347D02*
X0104330Y0213347D01*
X0104330Y0212348D02*
X0104993Y0212348D01*
X0105207Y0211350D02*
X0104116Y0211350D01*
X0103702Y0210351D02*
X0105621Y0210351D01*
X0106502Y0209353D02*
X0102821Y0209353D01*
X0096502Y0209353D02*
X0092821Y0209353D01*
X0093702Y0210351D02*
X0095621Y0210351D01*
X0095207Y0211350D02*
X0094116Y0211350D01*
X0094330Y0212348D02*
X0094993Y0212348D01*
X0094993Y0213347D02*
X0094330Y0213347D01*
X0094073Y0214345D02*
X0095250Y0214345D01*
X0095664Y0215344D02*
X0093659Y0215344D01*
X0092717Y0216342D02*
X0096606Y0216342D01*
X0110887Y0217341D02*
X0118436Y0217341D01*
X0118220Y0218339D02*
X0111103Y0218339D01*
X0112806Y0219338D02*
X0116517Y0219338D01*
X0115627Y0220336D02*
X0113696Y0220336D01*
X0114110Y0221335D02*
X0115213Y0221335D01*
X0114993Y0222333D02*
X0114330Y0222333D01*
X0114330Y0223332D02*
X0114993Y0223332D01*
X0115244Y0224330D02*
X0114079Y0224330D01*
X0113665Y0225329D02*
X0115658Y0225329D01*
X0116591Y0226327D02*
X0112732Y0226327D01*
X0122732Y0226327D02*
X0126591Y0226327D01*
X0125658Y0225329D02*
X0123665Y0225329D01*
X0124079Y0224330D02*
X0125244Y0224330D01*
X0124993Y0223332D02*
X0124330Y0223332D01*
X0124330Y0222333D02*
X0124993Y0222333D01*
X0125213Y0221335D02*
X0124110Y0221335D01*
X0123696Y0220336D02*
X0125627Y0220336D01*
X0126517Y0219338D02*
X0122806Y0219338D01*
X0121103Y0218339D02*
X0128220Y0218339D01*
X0128436Y0217341D02*
X0120887Y0217341D01*
X0122717Y0216342D02*
X0126606Y0216342D01*
X0125664Y0215344D02*
X0123659Y0215344D01*
X0124073Y0214345D02*
X0125250Y0214345D01*
X0124993Y0213347D02*
X0124330Y0213347D01*
X0124330Y0212348D02*
X0124993Y0212348D01*
X0125207Y0211350D02*
X0124116Y0211350D01*
X0123702Y0210351D02*
X0125621Y0210351D01*
X0126502Y0209353D02*
X0122821Y0209353D01*
X0116502Y0209353D02*
X0112821Y0209353D01*
X0113702Y0210351D02*
X0115621Y0210351D01*
X0115207Y0211350D02*
X0114116Y0211350D01*
X0114330Y0212348D02*
X0114993Y0212348D01*
X0114993Y0213347D02*
X0114330Y0213347D01*
X0114073Y0214345D02*
X0115250Y0214345D01*
X0115664Y0215344D02*
X0113659Y0215344D01*
X0112717Y0216342D02*
X0116606Y0216342D01*
X0130887Y0217341D02*
X0138436Y0217341D01*
X0138220Y0218339D02*
X0131103Y0218339D01*
X0132806Y0219338D02*
X0136517Y0219338D01*
X0135627Y0220336D02*
X0133696Y0220336D01*
X0134110Y0221335D02*
X0135213Y0221335D01*
X0134993Y0222333D02*
X0134330Y0222333D01*
X0134330Y0223332D02*
X0134993Y0223332D01*
X0135244Y0224330D02*
X0134079Y0224330D01*
X0133665Y0225329D02*
X0135658Y0225329D01*
X0136591Y0226327D02*
X0132732Y0226327D01*
X0142732Y0226327D02*
X0146591Y0226327D01*
X0145658Y0225329D02*
X0143665Y0225329D01*
X0144079Y0224330D02*
X0145244Y0224330D01*
X0144993Y0223332D02*
X0144330Y0223332D01*
X0144330Y0222333D02*
X0144993Y0222333D01*
X0145213Y0221335D02*
X0144110Y0221335D01*
X0143696Y0220336D02*
X0145627Y0220336D01*
X0146517Y0219338D02*
X0142806Y0219338D01*
X0141103Y0218339D02*
X0148220Y0218339D01*
X0148436Y0217341D02*
X0140887Y0217341D01*
X0142717Y0216342D02*
X0146606Y0216342D01*
X0145664Y0215344D02*
X0143659Y0215344D01*
X0144073Y0214345D02*
X0145250Y0214345D01*
X0144993Y0213347D02*
X0144330Y0213347D01*
X0144330Y0212348D02*
X0144993Y0212348D01*
X0145207Y0211350D02*
X0144116Y0211350D01*
X0143702Y0210351D02*
X0145621Y0210351D01*
X0146502Y0209353D02*
X0142821Y0209353D01*
X0136502Y0209353D02*
X0132821Y0209353D01*
X0133702Y0210351D02*
X0135621Y0210351D01*
X0135207Y0211350D02*
X0134116Y0211350D01*
X0134330Y0212348D02*
X0134993Y0212348D01*
X0134993Y0213347D02*
X0134330Y0213347D01*
X0134073Y0214345D02*
X0135250Y0214345D01*
X0135664Y0215344D02*
X0133659Y0215344D01*
X0132717Y0216342D02*
X0136606Y0216342D01*
X0150887Y0217341D02*
X0158436Y0217341D01*
X0158220Y0218339D02*
X0151103Y0218339D01*
X0152806Y0219338D02*
X0156517Y0219338D01*
X0155627Y0220336D02*
X0153696Y0220336D01*
X0154110Y0221335D02*
X0155213Y0221335D01*
X0154993Y0222333D02*
X0154330Y0222333D01*
X0154330Y0223332D02*
X0154993Y0223332D01*
X0155043Y0224330D02*
X0154079Y0224330D01*
X0154044Y0225329D02*
X0153665Y0225329D01*
X0153046Y0226327D02*
X0152732Y0226327D01*
X0153075Y0229409D02*
X0159661Y0222823D01*
X0159661Y0222795D01*
X0162806Y0219338D02*
X0166517Y0219338D01*
X0165627Y0220336D02*
X0163696Y0220336D01*
X0164110Y0221335D02*
X0165213Y0221335D01*
X0164993Y0222333D02*
X0164330Y0222333D01*
X0164330Y0223332D02*
X0164993Y0223332D01*
X0165244Y0224330D02*
X0164079Y0224330D01*
X0163665Y0225329D02*
X0165658Y0225329D01*
X0166591Y0226327D02*
X0162732Y0226327D01*
X0158980Y0229409D02*
X0166854Y0229409D01*
X0169661Y0226602D01*
X0169661Y0222795D01*
X0172806Y0219338D02*
X0176517Y0219338D01*
X0175627Y0220336D02*
X0173696Y0220336D01*
X0174110Y0221335D02*
X0175213Y0221335D01*
X0174993Y0222333D02*
X0174330Y0222333D01*
X0174330Y0223332D02*
X0174993Y0223332D01*
X0175244Y0224330D02*
X0174079Y0224330D01*
X0173665Y0225329D02*
X0175658Y0225329D01*
X0176591Y0226327D02*
X0172732Y0226327D01*
X0171861Y0227326D02*
X0177461Y0227326D01*
X0177461Y0228324D02*
X0171051Y0228324D01*
X0170052Y0229323D02*
X0177461Y0229323D01*
X0176611Y0230321D02*
X0169054Y0230321D01*
X0162917Y0233346D02*
X0176697Y0233346D01*
X0179661Y0230382D01*
X0179661Y0222795D01*
X0182806Y0219338D02*
X0186517Y0219338D01*
X0185627Y0220336D02*
X0183696Y0220336D01*
X0184110Y0221335D02*
X0185213Y0221335D01*
X0184993Y0222333D02*
X0184330Y0222333D01*
X0184330Y0223332D02*
X0184993Y0223332D01*
X0185244Y0224330D02*
X0184079Y0224330D01*
X0183665Y0225329D02*
X0185658Y0225329D01*
X0186591Y0226327D02*
X0182732Y0226327D01*
X0181861Y0227326D02*
X0188276Y0227326D01*
X0188276Y0228324D02*
X0181861Y0228324D01*
X0181861Y0229323D02*
X0188276Y0229323D01*
X0188276Y0230321D02*
X0181861Y0230321D01*
X0181835Y0231320D02*
X0188276Y0231320D01*
X0188276Y0232318D02*
X0180836Y0232318D01*
X0179838Y0233317D02*
X0187395Y0233317D01*
X0186396Y0234315D02*
X0178839Y0234315D01*
X0186539Y0237283D02*
X0190476Y0233346D01*
X0190476Y0223610D01*
X0189661Y0222795D01*
X0192806Y0219338D02*
X0196517Y0219338D01*
X0195627Y0220336D02*
X0193696Y0220336D01*
X0194110Y0221335D02*
X0195213Y0221335D01*
X0194993Y0222333D02*
X0194330Y0222333D01*
X0194330Y0223332D02*
X0194993Y0223332D01*
X0195244Y0224330D02*
X0194079Y0224330D01*
X0193665Y0225329D02*
X0195658Y0225329D01*
X0196591Y0226327D02*
X0192732Y0226327D01*
X0192676Y0227326D02*
X0198119Y0227326D01*
X0198119Y0228324D02*
X0192676Y0228324D01*
X0192676Y0229323D02*
X0198119Y0229323D01*
X0198119Y0230321D02*
X0192676Y0230321D01*
X0192676Y0231320D02*
X0198119Y0231320D01*
X0198119Y0232318D02*
X0192676Y0232318D01*
X0192676Y0233317D02*
X0198119Y0233317D01*
X0198119Y0234315D02*
X0192619Y0234315D01*
X0191620Y0235314D02*
X0198119Y0235314D01*
X0198119Y0236312D02*
X0190622Y0236312D01*
X0189623Y0237311D02*
X0197180Y0237311D01*
X0196182Y0238309D02*
X0188625Y0238309D01*
X0186539Y0237283D02*
X0166854Y0237283D01*
X0154827Y0249311D01*
X0154827Y0254843D01*
X0154689Y0254705D01*
X0144827Y0254843D02*
X0144827Y0251437D01*
X0162917Y0233346D01*
X0158980Y0229409D02*
X0145201Y0243189D01*
X0097957Y0243189D01*
X0094827Y0246319D01*
X0094827Y0254843D01*
X0094610Y0254626D01*
X0090127Y0254286D02*
X0089327Y0254286D01*
X0089327Y0254343D02*
X0085327Y0254343D01*
X0085327Y0255342D01*
X0089327Y0255342D01*
X0089327Y0258197D01*
X0089216Y0258896D01*
X0088997Y0259570D01*
X0088676Y0260201D01*
X0088573Y0260343D01*
X0090775Y0260343D01*
X0090127Y0258777D01*
X0090127Y0250908D01*
X0090842Y0249180D01*
X0092164Y0247858D01*
X0092627Y0247667D01*
X0092627Y0245408D01*
X0095757Y0242278D01*
X0096582Y0241452D01*
X0083120Y0241452D01*
X0077027Y0247545D01*
X0077027Y0247667D01*
X0077489Y0247858D01*
X0078811Y0249180D01*
X0079527Y0250908D01*
X0079527Y0258777D01*
X0078878Y0260343D01*
X0081081Y0260343D01*
X0080978Y0260201D01*
X0080656Y0259570D01*
X0080438Y0258896D01*
X0080327Y0258197D01*
X0080327Y0255342D01*
X0084327Y0255342D01*
X0084327Y0254343D01*
X0080327Y0254343D01*
X0080327Y0251488D01*
X0080438Y0250789D01*
X0080656Y0250115D01*
X0080978Y0249484D01*
X0081394Y0248911D01*
X0081895Y0248410D01*
X0082468Y0247994D01*
X0083099Y0247672D01*
X0083773Y0247453D01*
X0084327Y0247366D01*
X0084327Y0254342D01*
X0085327Y0254342D01*
X0085327Y0247366D01*
X0085881Y0247453D01*
X0086554Y0247672D01*
X0087185Y0247994D01*
X0087758Y0248410D01*
X0088259Y0248911D01*
X0088676Y0249484D01*
X0088997Y0250115D01*
X0089216Y0250789D01*
X0089327Y0251488D01*
X0089327Y0254343D01*
X0089327Y0253287D02*
X0090127Y0253287D01*
X0090127Y0252289D02*
X0089327Y0252289D01*
X0089295Y0251290D02*
X0090127Y0251290D01*
X0090382Y0250292D02*
X0089054Y0250292D01*
X0088537Y0249293D02*
X0090796Y0249293D01*
X0091728Y0248295D02*
X0087599Y0248295D01*
X0085327Y0248295D02*
X0084327Y0248295D01*
X0084327Y0249293D02*
X0085327Y0249293D01*
X0085327Y0250292D02*
X0084327Y0250292D01*
X0084327Y0251290D02*
X0085327Y0251290D01*
X0085327Y0252289D02*
X0084327Y0252289D01*
X0084327Y0253287D02*
X0085327Y0253287D01*
X0085327Y0254286D02*
X0084327Y0254286D01*
X0084327Y0255284D02*
X0079527Y0255284D01*
X0079527Y0254286D02*
X0080327Y0254286D01*
X0080327Y0253287D02*
X0079527Y0253287D01*
X0079527Y0252289D02*
X0080327Y0252289D01*
X0080358Y0251290D02*
X0079527Y0251290D01*
X0079272Y0250292D02*
X0080599Y0250292D01*
X0081117Y0249293D02*
X0078858Y0249293D01*
X0077926Y0248295D02*
X0082054Y0248295D01*
X0079273Y0245299D02*
X0092735Y0245299D01*
X0092627Y0246298D02*
X0078274Y0246298D01*
X0077276Y0247296D02*
X0092627Y0247296D01*
X0093734Y0244300D02*
X0080271Y0244300D01*
X0081270Y0243302D02*
X0094732Y0243302D01*
X0095731Y0242303D02*
X0082268Y0242303D01*
X0082209Y0239252D02*
X0141264Y0239252D01*
X0151106Y0229409D01*
X0153075Y0229409D01*
X0148082Y0229323D02*
X0009937Y0229323D01*
X0009937Y0230321D02*
X0147083Y0230321D01*
X0146085Y0231320D02*
X0009937Y0231320D01*
X0009937Y0232318D02*
X0145086Y0232318D01*
X0144088Y0233317D02*
X0009937Y0233317D01*
X0009937Y0234315D02*
X0143089Y0234315D01*
X0142091Y0235314D02*
X0009937Y0235314D01*
X0009937Y0236312D02*
X0141092Y0236312D01*
X0164827Y0247185D02*
X0170791Y0241220D01*
X0196382Y0241220D01*
X0200319Y0237283D01*
X0200319Y0223453D01*
X0199661Y0222795D01*
X0202806Y0219338D02*
X0206517Y0219338D01*
X0205627Y0220336D02*
X0203696Y0220336D01*
X0204110Y0221335D02*
X0205213Y0221335D01*
X0204993Y0222333D02*
X0204330Y0222333D01*
X0204330Y0223332D02*
X0204993Y0223332D01*
X0205244Y0224330D02*
X0204079Y0224330D01*
X0203665Y0225329D02*
X0205658Y0225329D01*
X0206591Y0226327D02*
X0202732Y0226327D01*
X0202519Y0227326D02*
X0207961Y0227326D01*
X0207961Y0228324D02*
X0202519Y0228324D01*
X0202519Y0229323D02*
X0207961Y0229323D01*
X0207961Y0230321D02*
X0202519Y0230321D01*
X0202519Y0231320D02*
X0207961Y0231320D01*
X0207961Y0232318D02*
X0202519Y0232318D01*
X0202519Y0233317D02*
X0207961Y0233317D01*
X0207961Y0234315D02*
X0202519Y0234315D01*
X0202519Y0235314D02*
X0207961Y0235314D01*
X0207961Y0236312D02*
X0202519Y0236312D01*
X0202519Y0237311D02*
X0207961Y0237311D01*
X0207961Y0238309D02*
X0202404Y0238309D01*
X0201406Y0239308D02*
X0207961Y0239308D01*
X0207961Y0240306D02*
X0200407Y0240306D01*
X0201230Y0239483D02*
X0201230Y0239483D01*
X0199409Y0241305D02*
X0206966Y0241305D01*
X0205967Y0242303D02*
X0198410Y0242303D01*
X0206224Y0245157D02*
X0210161Y0241220D01*
X0210161Y0223295D01*
X0209661Y0222795D01*
X0208220Y0218339D02*
X0201103Y0218339D01*
X0200887Y0217341D02*
X0208436Y0217341D01*
X0206606Y0216342D02*
X0202717Y0216342D01*
X0203659Y0215344D02*
X0205664Y0215344D01*
X0205250Y0214345D02*
X0204073Y0214345D01*
X0204330Y0213347D02*
X0204993Y0213347D01*
X0204993Y0212348D02*
X0204330Y0212348D01*
X0204116Y0211350D02*
X0205207Y0211350D01*
X0205621Y0210351D02*
X0203702Y0210351D01*
X0202821Y0209353D02*
X0206502Y0209353D01*
X0196502Y0209353D02*
X0192821Y0209353D01*
X0193702Y0210351D02*
X0195621Y0210351D01*
X0195207Y0211350D02*
X0194116Y0211350D01*
X0194330Y0212348D02*
X0194993Y0212348D01*
X0194993Y0213347D02*
X0194330Y0213347D01*
X0194073Y0214345D02*
X0195250Y0214345D01*
X0195664Y0215344D02*
X0193659Y0215344D01*
X0192717Y0216342D02*
X0196606Y0216342D01*
X0198436Y0217341D02*
X0190887Y0217341D01*
X0191103Y0218339D02*
X0198220Y0218339D01*
X0188436Y0217341D02*
X0180887Y0217341D01*
X0181103Y0218339D02*
X0188220Y0218339D01*
X0186606Y0216342D02*
X0182717Y0216342D01*
X0183659Y0215344D02*
X0185664Y0215344D01*
X0185250Y0214345D02*
X0184073Y0214345D01*
X0184330Y0213347D02*
X0184993Y0213347D01*
X0184993Y0212348D02*
X0184330Y0212348D01*
X0184116Y0211350D02*
X0185207Y0211350D01*
X0185621Y0210351D02*
X0183702Y0210351D01*
X0182821Y0209353D02*
X0186502Y0209353D01*
X0176502Y0209353D02*
X0172821Y0209353D01*
X0173702Y0210351D02*
X0175621Y0210351D01*
X0175207Y0211350D02*
X0174116Y0211350D01*
X0174330Y0212348D02*
X0174993Y0212348D01*
X0174993Y0213347D02*
X0174330Y0213347D01*
X0174073Y0214345D02*
X0175250Y0214345D01*
X0175664Y0215344D02*
X0173659Y0215344D01*
X0172717Y0216342D02*
X0176606Y0216342D01*
X0178436Y0217341D02*
X0170887Y0217341D01*
X0171103Y0218339D02*
X0178220Y0218339D01*
X0168436Y0217341D02*
X0160887Y0217341D01*
X0161103Y0218339D02*
X0168220Y0218339D01*
X0166606Y0216342D02*
X0162717Y0216342D01*
X0163659Y0215344D02*
X0165664Y0215344D01*
X0165250Y0214345D02*
X0164073Y0214345D01*
X0164330Y0213347D02*
X0164993Y0213347D01*
X0164993Y0212348D02*
X0164330Y0212348D01*
X0164116Y0211350D02*
X0165207Y0211350D01*
X0165621Y0210351D02*
X0163702Y0210351D01*
X0162821Y0209353D02*
X0166502Y0209353D01*
X0156502Y0209353D02*
X0152821Y0209353D01*
X0153702Y0210351D02*
X0155621Y0210351D01*
X0155207Y0211350D02*
X0154116Y0211350D01*
X0154330Y0212348D02*
X0154993Y0212348D01*
X0154993Y0213347D02*
X0154330Y0213347D01*
X0154073Y0214345D02*
X0155250Y0214345D01*
X0155664Y0215344D02*
X0153659Y0215344D01*
X0152717Y0216342D02*
X0156606Y0216342D01*
X0176697Y0245157D02*
X0206224Y0245157D01*
X0208196Y0246298D02*
X0375709Y0246298D01*
X0374427Y0247296D02*
X0207197Y0247296D01*
X0209194Y0245299D02*
X0377471Y0245299D01*
X0373429Y0248295D02*
X0197599Y0248295D01*
X0198537Y0249293D02*
X0372715Y0249293D01*
X0372139Y0250292D02*
X0199054Y0250292D01*
X0199295Y0251290D02*
X0371656Y0251290D01*
X0371388Y0252289D02*
X0199327Y0252289D01*
X0199327Y0253287D02*
X0371121Y0253287D01*
X0371028Y0254286D02*
X0199327Y0254286D01*
X0199327Y0256283D02*
X0371028Y0256283D01*
X0371028Y0255284D02*
X0195327Y0255284D01*
X0195327Y0254286D02*
X0194327Y0254286D01*
X0194327Y0255284D02*
X0189527Y0255284D01*
X0189527Y0254286D02*
X0190327Y0254286D01*
X0190327Y0253287D02*
X0189527Y0253287D01*
X0189527Y0252289D02*
X0190327Y0252289D01*
X0190358Y0251290D02*
X0189527Y0251290D01*
X0189272Y0250292D02*
X0190599Y0250292D01*
X0191117Y0249293D02*
X0188858Y0249293D01*
X0187926Y0248295D02*
X0192054Y0248295D01*
X0194327Y0248295D02*
X0195327Y0248295D01*
X0195327Y0249293D02*
X0194327Y0249293D01*
X0194327Y0250292D02*
X0195327Y0250292D01*
X0195327Y0251290D02*
X0194327Y0251290D01*
X0194327Y0252289D02*
X0195327Y0252289D01*
X0195327Y0253287D02*
X0194327Y0253287D01*
X0190327Y0256283D02*
X0189527Y0256283D01*
X0189527Y0257281D02*
X0190327Y0257281D01*
X0190340Y0258280D02*
X0189527Y0258280D01*
X0189319Y0259278D02*
X0190562Y0259278D01*
X0191033Y0260277D02*
X0188906Y0260277D01*
X0198621Y0260277D02*
X0372467Y0260277D01*
X0371891Y0259278D02*
X0199092Y0259278D01*
X0199314Y0258280D02*
X0371541Y0258280D01*
X0371273Y0257281D02*
X0199327Y0257281D01*
X0210193Y0244300D02*
X0386764Y0244300D01*
X0386764Y0243302D02*
X0211191Y0243302D01*
X0212190Y0242303D02*
X0386764Y0242303D01*
X0386764Y0241305D02*
X0212361Y0241305D01*
X0212361Y0240306D02*
X0386764Y0240306D01*
X0386764Y0239308D02*
X0212361Y0239308D01*
X0212361Y0238309D02*
X0386764Y0238309D01*
X0386764Y0237311D02*
X0212361Y0237311D01*
X0212361Y0236312D02*
X0386764Y0236312D01*
X0386764Y0235314D02*
X0212361Y0235314D01*
X0212361Y0234315D02*
X0386764Y0234315D01*
X0386764Y0233317D02*
X0212361Y0233317D01*
X0212361Y0232318D02*
X0386764Y0232318D01*
X0386764Y0231320D02*
X0212361Y0231320D01*
X0212361Y0230321D02*
X0386764Y0230321D01*
X0386764Y0229323D02*
X0212361Y0229323D01*
X0220923Y0227326D02*
X0228400Y0227326D01*
X0226591Y0226327D02*
X0222732Y0226327D01*
X0223665Y0225329D02*
X0225658Y0225329D01*
X0225244Y0224330D02*
X0224079Y0224330D01*
X0224330Y0223332D02*
X0224993Y0223332D01*
X0224993Y0222333D02*
X0224330Y0222333D01*
X0224110Y0221335D02*
X0225213Y0221335D01*
X0225627Y0220336D02*
X0223696Y0220336D01*
X0222806Y0219338D02*
X0226517Y0219338D01*
X0232717Y0216342D02*
X0337905Y0216342D01*
X0338318Y0215344D02*
X0233659Y0215344D01*
X0234073Y0214345D02*
X0338996Y0214345D01*
X0350735Y0222333D02*
X0364174Y0222333D01*
X0362412Y0221335D02*
X0352497Y0221335D01*
X0353458Y0220336D02*
X0361452Y0220336D01*
X0367172Y0222333D02*
X0386764Y0222333D01*
X0386764Y0221335D02*
X0368934Y0221335D01*
X0369895Y0220336D02*
X0386764Y0220336D01*
X0386764Y0219338D02*
X0370309Y0219338D01*
X0370621Y0218339D02*
X0386764Y0218339D01*
X0386764Y0217341D02*
X0370621Y0217341D01*
X0370509Y0216342D02*
X0386764Y0216342D01*
X0386764Y0215344D02*
X0370095Y0215344D01*
X0369418Y0214345D02*
X0386764Y0214345D01*
X0386764Y0213347D02*
X0368338Y0213347D01*
X0367654Y0208354D02*
X0386764Y0208354D01*
X0386764Y0207356D02*
X0369134Y0207356D01*
X0369978Y0206357D02*
X0386764Y0206357D01*
X0386764Y0205359D02*
X0370391Y0205359D01*
X0370621Y0204360D02*
X0386764Y0204360D01*
X0386764Y0203362D02*
X0370621Y0203362D01*
X0370426Y0202363D02*
X0386764Y0202363D01*
X0386764Y0201365D02*
X0370012Y0201365D01*
X0369218Y0200366D02*
X0386764Y0200366D01*
X0386764Y0199367D02*
X0367856Y0199367D01*
X0386764Y0198369D02*
X0230280Y0198369D01*
X0230815Y0197370D02*
X0386764Y0197370D01*
X0386764Y0196372D02*
X0232687Y0196372D01*
X0233647Y0195373D02*
X0386764Y0195373D01*
X0386764Y0194375D02*
X0234060Y0194375D01*
X0234330Y0193376D02*
X0386764Y0193376D01*
X0386764Y0192378D02*
X0234330Y0192378D01*
X0234128Y0191379D02*
X0386764Y0191379D01*
X0386764Y0190381D02*
X0233714Y0190381D01*
X0232851Y0189382D02*
X0386764Y0189382D01*
X0386764Y0188384D02*
X0231211Y0188384D01*
X0226651Y0186387D02*
X0222672Y0186387D01*
X0223640Y0185388D02*
X0225682Y0185388D01*
X0225269Y0184390D02*
X0224054Y0184390D01*
X0224330Y0183391D02*
X0224993Y0183391D01*
X0224993Y0182393D02*
X0224330Y0182393D01*
X0224134Y0181394D02*
X0225189Y0181394D01*
X0225602Y0180396D02*
X0223721Y0180396D01*
X0222866Y0179397D02*
X0226457Y0179397D01*
X0228076Y0178399D02*
X0221247Y0178399D01*
X0220743Y0177400D02*
X0228579Y0177400D01*
X0226666Y0176402D02*
X0222657Y0176402D01*
X0223634Y0175403D02*
X0225689Y0175403D01*
X0225275Y0174405D02*
X0224048Y0174405D01*
X0224330Y0173406D02*
X0224993Y0173406D01*
X0224993Y0172408D02*
X0224330Y0172408D01*
X0224140Y0171409D02*
X0225182Y0171409D01*
X0225596Y0170411D02*
X0223727Y0170411D01*
X0222881Y0169412D02*
X0226442Y0169412D01*
X0232881Y0169412D02*
X0341590Y0169412D01*
X0341756Y0169343D02*
X0350220Y0169343D01*
X0352039Y0170097D01*
X0353431Y0171488D01*
X0354184Y0173307D01*
X0354184Y0175276D01*
X0353431Y0177094D01*
X0352039Y0178486D01*
X0350220Y0179239D01*
X0341756Y0179239D01*
X0339937Y0178486D01*
X0338545Y0177094D01*
X0337792Y0175276D01*
X0337792Y0173307D01*
X0338545Y0171488D01*
X0339937Y0170097D01*
X0341756Y0169343D01*
X0339623Y0170411D02*
X0233727Y0170411D01*
X0234140Y0171409D02*
X0338625Y0171409D01*
X0338165Y0172408D02*
X0234330Y0172408D01*
X0234330Y0173406D02*
X0337792Y0173406D01*
X0337792Y0174405D02*
X0234048Y0174405D01*
X0233634Y0175403D02*
X0337845Y0175403D01*
X0338259Y0176402D02*
X0232657Y0176402D01*
X0230743Y0177400D02*
X0338851Y0177400D01*
X0339850Y0178399D02*
X0231247Y0178399D01*
X0228508Y0197370D02*
X0220815Y0197370D01*
X0176697Y0245157D02*
X0174827Y0247028D01*
X0174827Y0254843D01*
X0174630Y0254646D01*
X0164827Y0254843D02*
X0164827Y0247185D01*
X0164748Y0254764D02*
X0164827Y0254843D01*
X0144827Y0254843D02*
X0144650Y0254665D01*
X0090748Y0260277D02*
X0088621Y0260277D01*
X0089092Y0259278D02*
X0090334Y0259278D01*
X0090127Y0258280D02*
X0089314Y0258280D01*
X0089327Y0257281D02*
X0090127Y0257281D01*
X0090127Y0256283D02*
X0089327Y0256283D01*
X0090127Y0255284D02*
X0085327Y0255284D01*
X0080327Y0256283D02*
X0079527Y0256283D01*
X0079527Y0257281D02*
X0080327Y0257281D01*
X0080340Y0258280D02*
X0079527Y0258280D01*
X0079319Y0259278D02*
X0080562Y0259278D01*
X0081033Y0260277D02*
X0078906Y0260277D01*
X0074827Y0254843D02*
X0074827Y0246634D01*
X0082209Y0239252D01*
X0081038Y0237311D02*
X0009937Y0237311D01*
X0009937Y0238309D02*
X0080040Y0238309D01*
X0079041Y0239308D02*
X0009937Y0239308D01*
X0009937Y0240306D02*
X0078043Y0240306D01*
X0077044Y0241305D02*
X0009937Y0241305D01*
X0009937Y0242303D02*
X0076046Y0242303D01*
X0075047Y0243302D02*
X0009937Y0243302D01*
X0009937Y0244300D02*
X0074049Y0244300D01*
X0073050Y0245299D02*
X0019230Y0245299D01*
X0020992Y0246298D02*
X0072627Y0246298D01*
X0072627Y0247296D02*
X0066132Y0247296D01*
X0067926Y0248295D02*
X0071728Y0248295D01*
X0070796Y0249293D02*
X0068858Y0249293D01*
X0069272Y0250292D02*
X0070382Y0250292D01*
X0070127Y0251290D02*
X0069527Y0251290D01*
X0069527Y0252289D02*
X0070127Y0252289D01*
X0070127Y0253287D02*
X0069527Y0253287D01*
X0069527Y0254286D02*
X0070127Y0254286D01*
X0070127Y0255284D02*
X0069527Y0255284D01*
X0069527Y0256283D02*
X0070127Y0256283D01*
X0070127Y0257281D02*
X0069527Y0257281D01*
X0069527Y0258280D02*
X0070127Y0258280D01*
X0070334Y0259278D02*
X0069319Y0259278D01*
X0068906Y0260277D02*
X0070748Y0260277D01*
X0060748Y0260277D02*
X0058906Y0260277D01*
X0059319Y0259278D02*
X0060334Y0259278D01*
X0060127Y0258280D02*
X0059527Y0258280D01*
X0059527Y0257281D02*
X0060127Y0257281D01*
X0060127Y0256283D02*
X0059527Y0256283D01*
X0059527Y0255284D02*
X0060127Y0255284D01*
X0060127Y0254286D02*
X0059527Y0254286D01*
X0059527Y0253287D02*
X0060127Y0253287D01*
X0060127Y0252289D02*
X0059527Y0252289D01*
X0059527Y0251290D02*
X0060127Y0251290D01*
X0060382Y0250292D02*
X0059272Y0250292D01*
X0058858Y0249293D02*
X0060796Y0249293D01*
X0061728Y0248295D02*
X0057926Y0248295D01*
X0056132Y0247296D02*
X0063521Y0247296D01*
X0053521Y0247296D02*
X0022273Y0247296D01*
X0023272Y0248295D02*
X0042054Y0248295D01*
X0041117Y0249293D02*
X0023985Y0249293D01*
X0024562Y0250292D02*
X0040599Y0250292D01*
X0040358Y0251290D02*
X0025045Y0251290D01*
X0025313Y0252289D02*
X0040327Y0252289D01*
X0040327Y0253287D02*
X0025580Y0253287D01*
X0025672Y0254286D02*
X0040327Y0254286D01*
X0040327Y0256283D02*
X0025672Y0256283D01*
X0025672Y0255284D02*
X0044327Y0255284D01*
X0044327Y0254286D02*
X0045327Y0254286D01*
X0045327Y0255284D02*
X0050127Y0255284D01*
X0050127Y0254286D02*
X0049327Y0254286D01*
X0049327Y0253287D02*
X0050127Y0253287D01*
X0050127Y0252289D02*
X0049327Y0252289D01*
X0049295Y0251290D02*
X0050127Y0251290D01*
X0050382Y0250292D02*
X0049054Y0250292D01*
X0048537Y0249293D02*
X0050796Y0249293D01*
X0051728Y0248295D02*
X0047599Y0248295D01*
X0045327Y0248295D02*
X0044327Y0248295D01*
X0044327Y0249293D02*
X0045327Y0249293D01*
X0045327Y0250292D02*
X0044327Y0250292D01*
X0044327Y0251290D02*
X0045327Y0251290D01*
X0045327Y0252289D02*
X0044327Y0252289D01*
X0044327Y0253287D02*
X0045327Y0253287D01*
X0049327Y0256283D02*
X0050127Y0256283D01*
X0050127Y0257281D02*
X0049327Y0257281D01*
X0049314Y0258280D02*
X0050127Y0258280D01*
X0050334Y0259278D02*
X0049092Y0259278D01*
X0048621Y0260277D02*
X0050748Y0260277D01*
X0041033Y0260277D02*
X0024234Y0260277D01*
X0024810Y0259278D02*
X0040562Y0259278D01*
X0040340Y0258280D02*
X0025160Y0258280D01*
X0025428Y0257281D02*
X0040327Y0257281D01*
X0011329Y0245299D02*
X0009937Y0245299D01*
X0009937Y0167415D02*
X0386764Y0167415D01*
X0386764Y0166417D02*
X0009937Y0166417D01*
X0009937Y0165418D02*
X0341655Y0165418D01*
X0341756Y0165460D02*
X0339937Y0164707D01*
X0338545Y0163315D01*
X0337792Y0161496D01*
X0337792Y0159528D01*
X0338545Y0157709D01*
X0339937Y0156317D01*
X0341756Y0155564D01*
X0350220Y0155564D01*
X0352039Y0156317D01*
X0353431Y0157709D01*
X0354184Y0159528D01*
X0354184Y0161496D01*
X0353431Y0163315D01*
X0352039Y0164707D01*
X0350220Y0165460D01*
X0341756Y0165460D01*
X0339650Y0164420D02*
X0009937Y0164420D01*
X0009937Y0163421D02*
X0338652Y0163421D01*
X0338176Y0162423D02*
X0009937Y0162423D01*
X0009937Y0161424D02*
X0337792Y0161424D01*
X0337792Y0160426D02*
X0009937Y0160426D01*
X0009937Y0159427D02*
X0337834Y0159427D01*
X0338247Y0158429D02*
X0009937Y0158429D01*
X0009937Y0157430D02*
X0338824Y0157430D01*
X0339823Y0156431D02*
X0009937Y0156431D01*
X0009937Y0155433D02*
X0386764Y0155433D01*
X0386764Y0156431D02*
X0368590Y0156431D01*
X0368476Y0156317D02*
X0369868Y0157709D01*
X0370621Y0159528D01*
X0370621Y0161496D01*
X0369868Y0163315D01*
X0368476Y0164707D01*
X0366657Y0165460D01*
X0364689Y0165460D01*
X0362870Y0164707D01*
X0361478Y0163315D01*
X0360725Y0161496D01*
X0360725Y0159528D01*
X0361478Y0157709D01*
X0362870Y0156317D01*
X0364689Y0155564D01*
X0366657Y0155564D01*
X0368476Y0156317D01*
X0369589Y0157430D02*
X0386764Y0157430D01*
X0386764Y0158429D02*
X0370166Y0158429D01*
X0370580Y0159427D02*
X0386764Y0159427D01*
X0386764Y0160426D02*
X0370621Y0160426D01*
X0370621Y0161424D02*
X0386764Y0161424D01*
X0386764Y0162423D02*
X0370237Y0162423D01*
X0369762Y0163421D02*
X0386764Y0163421D01*
X0386764Y0164420D02*
X0368763Y0164420D01*
X0366758Y0165418D02*
X0386764Y0165418D01*
X0386764Y0154434D02*
X0009937Y0154434D01*
X0009937Y0153436D02*
X0386764Y0153436D01*
X0386764Y0152437D02*
X0009937Y0152437D01*
X0009937Y0151439D02*
X0386764Y0151439D01*
X0386764Y0150440D02*
X0009937Y0150440D01*
X0009937Y0149442D02*
X0386764Y0149442D01*
X0386764Y0148443D02*
X0009937Y0148443D01*
X0009937Y0147445D02*
X0386764Y0147445D01*
X0386764Y0146446D02*
X0009937Y0146446D01*
X0009937Y0145448D02*
X0386764Y0145448D01*
X0386764Y0144449D02*
X0009937Y0144449D01*
X0009937Y0143451D02*
X0386764Y0143451D01*
X0386764Y0142452D02*
X0233026Y0142452D01*
X0233507Y0142253D02*
X0231791Y0142964D01*
X0229934Y0142964D01*
X0228218Y0142253D01*
X0226904Y0140940D01*
X0226194Y0139224D01*
X0226194Y0137367D01*
X0226904Y0135651D01*
X0228218Y0134338D01*
X0229934Y0133627D01*
X0231791Y0133627D01*
X0233507Y0134338D01*
X0234820Y0135651D01*
X0235531Y0137367D01*
X0235531Y0139224D01*
X0234820Y0140940D01*
X0233507Y0142253D01*
X0234306Y0141454D02*
X0386764Y0141454D01*
X0386764Y0140455D02*
X0235021Y0140455D01*
X0235434Y0139457D02*
X0386764Y0139457D01*
X0386764Y0138458D02*
X0235531Y0138458D01*
X0235531Y0137460D02*
X0386764Y0137460D01*
X0386764Y0136461D02*
X0235156Y0136461D01*
X0234632Y0135463D02*
X0340622Y0135463D01*
X0339937Y0135179D02*
X0338545Y0133787D01*
X0337792Y0131968D01*
X0337792Y0130000D01*
X0338545Y0128181D01*
X0339937Y0126790D01*
X0341756Y0126036D01*
X0350220Y0126036D01*
X0352039Y0126790D01*
X0353431Y0128181D01*
X0354184Y0130000D01*
X0354184Y0131968D01*
X0353431Y0133787D01*
X0352039Y0135179D01*
X0350220Y0135932D01*
X0341756Y0135932D01*
X0339937Y0135179D01*
X0339223Y0134464D02*
X0233633Y0134464D01*
X0232990Y0132467D02*
X0337999Y0132467D01*
X0337792Y0131469D02*
X0234291Y0131469D01*
X0234820Y0130940D02*
X0233507Y0132253D01*
X0231791Y0132964D01*
X0229934Y0132964D01*
X0228218Y0132253D01*
X0226904Y0130940D01*
X0226194Y0129224D01*
X0226194Y0127367D01*
X0226904Y0125651D01*
X0228218Y0124338D01*
X0229934Y0123627D01*
X0231791Y0123627D01*
X0233507Y0124338D01*
X0234820Y0125651D01*
X0235531Y0127367D01*
X0235531Y0129224D01*
X0234820Y0130940D01*
X0235014Y0130470D02*
X0337792Y0130470D01*
X0338011Y0129472D02*
X0235428Y0129472D01*
X0235531Y0128473D02*
X0338425Y0128473D01*
X0339252Y0127475D02*
X0235531Y0127475D01*
X0235162Y0126476D02*
X0340694Y0126476D01*
X0341756Y0122153D02*
X0339937Y0121399D01*
X0338545Y0120008D01*
X0337792Y0118189D01*
X0337792Y0116220D01*
X0338545Y0114402D01*
X0339937Y0113010D01*
X0341756Y0112257D01*
X0350220Y0112257D01*
X0352039Y0113010D01*
X0353431Y0114402D01*
X0354184Y0116220D01*
X0354184Y0118189D01*
X0353431Y0120008D01*
X0352039Y0121399D01*
X0350220Y0122153D01*
X0341756Y0122153D01*
X0340140Y0121484D02*
X0234276Y0121484D01*
X0234820Y0120940D02*
X0233507Y0122253D01*
X0231791Y0122964D01*
X0229934Y0122964D01*
X0228218Y0122253D01*
X0226904Y0120940D01*
X0226194Y0119224D01*
X0226194Y0117367D01*
X0226904Y0115651D01*
X0228218Y0114338D01*
X0229934Y0113627D01*
X0231791Y0113627D01*
X0233507Y0114338D01*
X0234820Y0115651D01*
X0235531Y0117367D01*
X0235531Y0119224D01*
X0234820Y0120940D01*
X0235008Y0120485D02*
X0339023Y0120485D01*
X0338330Y0119487D02*
X0235422Y0119487D01*
X0235531Y0118488D02*
X0337916Y0118488D01*
X0337792Y0117490D02*
X0235531Y0117490D01*
X0235168Y0116491D02*
X0337792Y0116491D01*
X0338094Y0115493D02*
X0234662Y0115493D01*
X0233663Y0114494D02*
X0338507Y0114494D01*
X0339452Y0113496D02*
X0009937Y0113496D01*
X0009937Y0114494D02*
X0218061Y0114494D01*
X0218218Y0114338D02*
X0216904Y0115651D01*
X0216194Y0117367D01*
X0216194Y0119224D01*
X0216904Y0120940D01*
X0218218Y0122253D01*
X0219934Y0122964D01*
X0221791Y0122964D01*
X0223507Y0122253D01*
X0224820Y0120940D01*
X0225531Y0119224D01*
X0225531Y0117367D01*
X0224820Y0115651D01*
X0223507Y0114338D01*
X0221791Y0113627D01*
X0219934Y0113627D01*
X0218218Y0114338D01*
X0217063Y0115493D02*
X0009937Y0115493D01*
X0009937Y0116491D02*
X0216556Y0116491D01*
X0216194Y0117490D02*
X0009937Y0117490D01*
X0009937Y0118488D02*
X0216194Y0118488D01*
X0216303Y0119487D02*
X0009937Y0119487D01*
X0009937Y0120485D02*
X0216716Y0120485D01*
X0217448Y0121484D02*
X0009937Y0121484D01*
X0009937Y0122482D02*
X0218771Y0122482D01*
X0219934Y0123627D02*
X0221791Y0123627D01*
X0223507Y0124338D01*
X0224820Y0125651D01*
X0225531Y0127367D01*
X0225531Y0129224D01*
X0224820Y0130940D01*
X0223507Y0132253D01*
X0221791Y0132964D01*
X0219934Y0132964D01*
X0218218Y0132253D01*
X0216904Y0130940D01*
X0216194Y0129224D01*
X0216194Y0127367D01*
X0216904Y0125651D01*
X0218218Y0124338D01*
X0219934Y0123627D01*
X0218076Y0124479D02*
X0009937Y0124479D01*
X0009937Y0123481D02*
X0386764Y0123481D01*
X0386764Y0124479D02*
X0233648Y0124479D01*
X0234647Y0125478D02*
X0386764Y0125478D01*
X0386764Y0126476D02*
X0367720Y0126476D01*
X0368476Y0126790D02*
X0369868Y0128181D01*
X0370621Y0130000D01*
X0370621Y0131968D01*
X0369868Y0133787D01*
X0368476Y0135179D01*
X0366657Y0135932D01*
X0364689Y0135932D01*
X0362870Y0135179D01*
X0361478Y0133787D01*
X0360725Y0131968D01*
X0360725Y0130000D01*
X0361478Y0128181D01*
X0362870Y0126790D01*
X0364689Y0126036D01*
X0366657Y0126036D01*
X0368476Y0126790D01*
X0369161Y0127475D02*
X0386764Y0127475D01*
X0386764Y0128473D02*
X0369989Y0128473D01*
X0370402Y0129472D02*
X0386764Y0129472D01*
X0386764Y0130470D02*
X0370621Y0130470D01*
X0370621Y0131469D02*
X0386764Y0131469D01*
X0386764Y0132467D02*
X0370415Y0132467D01*
X0370001Y0133466D02*
X0386764Y0133466D01*
X0386764Y0134464D02*
X0369191Y0134464D01*
X0367791Y0135463D02*
X0386764Y0135463D01*
X0386764Y0122482D02*
X0232954Y0122482D01*
X0228771Y0122482D02*
X0222954Y0122482D01*
X0224276Y0121484D02*
X0227448Y0121484D01*
X0226716Y0120485D02*
X0225008Y0120485D01*
X0225422Y0119487D02*
X0226303Y0119487D01*
X0226194Y0118488D02*
X0225531Y0118488D01*
X0225531Y0117490D02*
X0226194Y0117490D01*
X0226556Y0116491D02*
X0225168Y0116491D01*
X0224662Y0115493D02*
X0227063Y0115493D01*
X0228061Y0114494D02*
X0223663Y0114494D01*
X0220606Y0107235D02*
X0218749Y0107235D01*
X0217033Y0106525D01*
X0215719Y0105211D01*
X0215009Y0103496D01*
X0215009Y0101638D01*
X0215719Y0099922D01*
X0217033Y0098609D01*
X0218749Y0097898D01*
X0220606Y0097898D01*
X0222322Y0098609D01*
X0223635Y0099922D01*
X0224346Y0101638D01*
X0224346Y0103496D01*
X0223635Y0105211D01*
X0222322Y0106525D01*
X0220606Y0107235D01*
X0222340Y0106506D02*
X0227014Y0106506D01*
X0227033Y0106525D02*
X0225719Y0105211D01*
X0225009Y0103496D01*
X0225009Y0101638D01*
X0225719Y0099922D01*
X0227033Y0098609D01*
X0228749Y0097898D01*
X0230606Y0097898D01*
X0232322Y0098609D01*
X0233635Y0099922D01*
X0234346Y0101638D01*
X0234346Y0103496D01*
X0233635Y0105211D01*
X0232322Y0106525D01*
X0230606Y0107235D01*
X0228749Y0107235D01*
X0227033Y0106525D01*
X0226015Y0105507D02*
X0223339Y0105507D01*
X0223926Y0104509D02*
X0225428Y0104509D01*
X0225015Y0103510D02*
X0224340Y0103510D01*
X0224346Y0102512D02*
X0225009Y0102512D01*
X0225060Y0101513D02*
X0224294Y0101513D01*
X0223880Y0100515D02*
X0225474Y0100515D01*
X0226125Y0099516D02*
X0223229Y0099516D01*
X0222101Y0098518D02*
X0227253Y0098518D01*
X0228749Y0097235D02*
X0227033Y0096525D01*
X0225719Y0095211D01*
X0225009Y0093496D01*
X0225009Y0091638D01*
X0225719Y0089922D01*
X0227033Y0088609D01*
X0228749Y0087898D01*
X0230606Y0087898D01*
X0232322Y0088609D01*
X0233635Y0089922D01*
X0234346Y0091638D01*
X0234346Y0093496D01*
X0233635Y0095211D01*
X0232322Y0096525D01*
X0230606Y0097235D01*
X0228749Y0097235D01*
X0227029Y0096521D02*
X0222326Y0096521D01*
X0222322Y0096525D02*
X0220606Y0097235D01*
X0218749Y0097235D01*
X0217033Y0096525D01*
X0215719Y0095211D01*
X0215009Y0093496D01*
X0215009Y0091638D01*
X0215719Y0089922D01*
X0217033Y0088609D01*
X0218749Y0087898D01*
X0220606Y0087898D01*
X0222322Y0088609D01*
X0223635Y0089922D01*
X0224346Y0091638D01*
X0224346Y0093496D01*
X0223635Y0095211D01*
X0222322Y0096525D01*
X0223324Y0095522D02*
X0226030Y0095522D01*
X0225435Y0094524D02*
X0223920Y0094524D01*
X0224333Y0093525D02*
X0225021Y0093525D01*
X0225009Y0092527D02*
X0224346Y0092527D01*
X0224300Y0091528D02*
X0225054Y0091528D01*
X0225468Y0090530D02*
X0223886Y0090530D01*
X0223244Y0089531D02*
X0226111Y0089531D01*
X0227217Y0088533D02*
X0222137Y0088533D01*
X0217217Y0088533D02*
X0212137Y0088533D01*
X0212322Y0088609D02*
X0213635Y0089922D01*
X0214346Y0091638D01*
X0214346Y0093496D01*
X0213635Y0095211D01*
X0212322Y0096525D01*
X0210606Y0097235D01*
X0208749Y0097235D01*
X0207033Y0096525D01*
X0205719Y0095211D01*
X0205009Y0093496D01*
X0205009Y0091638D01*
X0205719Y0089922D01*
X0207033Y0088609D01*
X0208749Y0087898D01*
X0210606Y0087898D01*
X0212322Y0088609D01*
X0213244Y0089531D02*
X0216111Y0089531D01*
X0215468Y0090530D02*
X0213886Y0090530D01*
X0214300Y0091528D02*
X0215054Y0091528D01*
X0215009Y0092527D02*
X0214346Y0092527D01*
X0214333Y0093525D02*
X0215021Y0093525D01*
X0215435Y0094524D02*
X0213920Y0094524D01*
X0213324Y0095522D02*
X0216030Y0095522D01*
X0217029Y0096521D02*
X0212326Y0096521D01*
X0212101Y0098518D02*
X0217253Y0098518D01*
X0216125Y0099516D02*
X0213229Y0099516D01*
X0213635Y0099922D02*
X0214346Y0101638D01*
X0214346Y0103496D01*
X0213635Y0105211D01*
X0212322Y0106525D01*
X0210606Y0107235D01*
X0208749Y0107235D01*
X0207033Y0106525D01*
X0205719Y0105211D01*
X0205009Y0103496D01*
X0205009Y0101638D01*
X0205719Y0099922D01*
X0207033Y0098609D01*
X0208749Y0097898D01*
X0210606Y0097898D01*
X0212322Y0098609D01*
X0213635Y0099922D01*
X0213880Y0100515D02*
X0215474Y0100515D01*
X0215060Y0101513D02*
X0214294Y0101513D01*
X0214346Y0102512D02*
X0215009Y0102512D01*
X0215015Y0103510D02*
X0214340Y0103510D01*
X0213926Y0104509D02*
X0215428Y0104509D01*
X0216015Y0105507D02*
X0213339Y0105507D01*
X0212340Y0106506D02*
X0217014Y0106506D01*
X0207014Y0106506D02*
X0202340Y0106506D01*
X0202322Y0106525D02*
X0200606Y0107235D01*
X0198749Y0107235D01*
X0197033Y0106525D01*
X0195719Y0105211D01*
X0195009Y0103496D01*
X0195009Y0101638D01*
X0195719Y0099922D01*
X0197033Y0098609D01*
X0198749Y0097898D01*
X0200606Y0097898D01*
X0202322Y0098609D01*
X0203635Y0099922D01*
X0204346Y0101638D01*
X0204346Y0103496D01*
X0203635Y0105211D01*
X0202322Y0106525D01*
X0203339Y0105507D02*
X0206015Y0105507D01*
X0205428Y0104509D02*
X0203926Y0104509D01*
X0204340Y0103510D02*
X0205015Y0103510D01*
X0205009Y0102512D02*
X0204346Y0102512D01*
X0204294Y0101513D02*
X0205060Y0101513D01*
X0205474Y0100515D02*
X0203880Y0100515D01*
X0203229Y0099516D02*
X0206125Y0099516D01*
X0207253Y0098518D02*
X0202101Y0098518D01*
X0200606Y0097235D02*
X0198749Y0097235D01*
X0197033Y0096525D01*
X0195719Y0095211D01*
X0195009Y0093496D01*
X0195009Y0091638D01*
X0195719Y0089922D01*
X0197033Y0088609D01*
X0198749Y0087898D01*
X0200606Y0087898D01*
X0202322Y0088609D01*
X0203635Y0089922D01*
X0204346Y0091638D01*
X0204346Y0093496D01*
X0203635Y0095211D01*
X0202322Y0096525D01*
X0200606Y0097235D01*
X0202326Y0096521D02*
X0207029Y0096521D01*
X0206030Y0095522D02*
X0203324Y0095522D01*
X0203920Y0094524D02*
X0205435Y0094524D01*
X0205021Y0093525D02*
X0204333Y0093525D01*
X0204346Y0092527D02*
X0205009Y0092527D01*
X0205054Y0091528D02*
X0204300Y0091528D01*
X0203886Y0090530D02*
X0205468Y0090530D01*
X0206111Y0089531D02*
X0203244Y0089531D01*
X0202137Y0088533D02*
X0207217Y0088533D01*
X0197217Y0088533D02*
X0192137Y0088533D01*
X0192322Y0088609D02*
X0193635Y0089922D01*
X0194346Y0091638D01*
X0194346Y0093496D01*
X0193635Y0095211D01*
X0192322Y0096525D01*
X0190606Y0097235D01*
X0188749Y0097235D01*
X0187033Y0096525D01*
X0185719Y0095211D01*
X0185009Y0093496D01*
X0185009Y0091638D01*
X0185719Y0089922D01*
X0187033Y0088609D01*
X0188749Y0087898D01*
X0190606Y0087898D01*
X0192322Y0088609D01*
X0193244Y0089531D02*
X0196111Y0089531D01*
X0195468Y0090530D02*
X0193886Y0090530D01*
X0194300Y0091528D02*
X0195054Y0091528D01*
X0195009Y0092527D02*
X0194346Y0092527D01*
X0194333Y0093525D02*
X0195021Y0093525D01*
X0195435Y0094524D02*
X0193920Y0094524D01*
X0193324Y0095522D02*
X0196030Y0095522D01*
X0197029Y0096521D02*
X0192326Y0096521D01*
X0192101Y0098518D02*
X0197253Y0098518D01*
X0196125Y0099516D02*
X0193229Y0099516D01*
X0193635Y0099922D02*
X0194346Y0101638D01*
X0194346Y0103496D01*
X0193635Y0105211D01*
X0192322Y0106525D01*
X0190606Y0107235D01*
X0188749Y0107235D01*
X0187033Y0106525D01*
X0185719Y0105211D01*
X0185009Y0103496D01*
X0185009Y0101638D01*
X0185719Y0099922D01*
X0187033Y0098609D01*
X0188749Y0097898D01*
X0190606Y0097898D01*
X0192322Y0098609D01*
X0193635Y0099922D01*
X0193880Y0100515D02*
X0195474Y0100515D01*
X0195060Y0101513D02*
X0194294Y0101513D01*
X0194346Y0102512D02*
X0195009Y0102512D01*
X0195015Y0103510D02*
X0194340Y0103510D01*
X0193926Y0104509D02*
X0195428Y0104509D01*
X0196015Y0105507D02*
X0193339Y0105507D01*
X0192340Y0106506D02*
X0197014Y0106506D01*
X0187014Y0106506D02*
X0182340Y0106506D01*
X0182322Y0106525D02*
X0180606Y0107235D01*
X0178749Y0107235D01*
X0177033Y0106525D01*
X0175719Y0105211D01*
X0175009Y0103496D01*
X0175009Y0101638D01*
X0175719Y0099922D01*
X0177033Y0098609D01*
X0178749Y0097898D01*
X0180606Y0097898D01*
X0182322Y0098609D01*
X0183635Y0099922D01*
X0184346Y0101638D01*
X0184346Y0103496D01*
X0183635Y0105211D01*
X0182322Y0106525D01*
X0183339Y0105507D02*
X0186015Y0105507D01*
X0185428Y0104509D02*
X0183926Y0104509D01*
X0184340Y0103510D02*
X0185015Y0103510D01*
X0185009Y0102512D02*
X0184346Y0102512D01*
X0184294Y0101513D02*
X0185060Y0101513D01*
X0185474Y0100515D02*
X0183880Y0100515D01*
X0183229Y0099516D02*
X0186125Y0099516D01*
X0187253Y0098518D02*
X0182101Y0098518D01*
X0180606Y0097235D02*
X0178749Y0097235D01*
X0177033Y0096525D01*
X0175719Y0095211D01*
X0175009Y0093496D01*
X0175009Y0091638D01*
X0175719Y0089922D01*
X0177033Y0088609D01*
X0178749Y0087898D01*
X0180606Y0087898D01*
X0182322Y0088609D01*
X0183635Y0089922D01*
X0184346Y0091638D01*
X0184346Y0093496D01*
X0183635Y0095211D01*
X0182322Y0096525D01*
X0180606Y0097235D01*
X0182326Y0096521D02*
X0187029Y0096521D01*
X0186030Y0095522D02*
X0183324Y0095522D01*
X0183920Y0094524D02*
X0185435Y0094524D01*
X0185021Y0093525D02*
X0184333Y0093525D01*
X0184346Y0092527D02*
X0185009Y0092527D01*
X0185054Y0091528D02*
X0184300Y0091528D01*
X0183886Y0090530D02*
X0185468Y0090530D01*
X0186111Y0089531D02*
X0183244Y0089531D01*
X0182137Y0088533D02*
X0187217Y0088533D01*
X0177217Y0088533D02*
X0172137Y0088533D01*
X0172322Y0088609D02*
X0173635Y0089922D01*
X0174346Y0091638D01*
X0174346Y0093496D01*
X0173635Y0095211D01*
X0172322Y0096525D01*
X0170606Y0097235D01*
X0168749Y0097235D01*
X0167033Y0096525D01*
X0165719Y0095211D01*
X0165009Y0093496D01*
X0165009Y0091638D01*
X0165719Y0089922D01*
X0167033Y0088609D01*
X0168749Y0087898D01*
X0170606Y0087898D01*
X0172322Y0088609D01*
X0173244Y0089531D02*
X0176111Y0089531D01*
X0175468Y0090530D02*
X0173886Y0090530D01*
X0174300Y0091528D02*
X0175054Y0091528D01*
X0175009Y0092527D02*
X0174346Y0092527D01*
X0174333Y0093525D02*
X0175021Y0093525D01*
X0175435Y0094524D02*
X0173920Y0094524D01*
X0173324Y0095522D02*
X0176030Y0095522D01*
X0177029Y0096521D02*
X0172326Y0096521D01*
X0172101Y0098518D02*
X0177253Y0098518D01*
X0176125Y0099516D02*
X0173229Y0099516D01*
X0173635Y0099922D02*
X0174346Y0101638D01*
X0174346Y0103496D01*
X0173635Y0105211D01*
X0172322Y0106525D01*
X0170606Y0107235D01*
X0168749Y0107235D01*
X0167033Y0106525D01*
X0165719Y0105211D01*
X0165009Y0103496D01*
X0165009Y0101638D01*
X0165719Y0099922D01*
X0167033Y0098609D01*
X0168749Y0097898D01*
X0170606Y0097898D01*
X0172322Y0098609D01*
X0173635Y0099922D01*
X0173880Y0100515D02*
X0175474Y0100515D01*
X0175060Y0101513D02*
X0174294Y0101513D01*
X0174346Y0102512D02*
X0175009Y0102512D01*
X0175015Y0103510D02*
X0174340Y0103510D01*
X0173926Y0104509D02*
X0175428Y0104509D01*
X0176015Y0105507D02*
X0173339Y0105507D01*
X0172340Y0106506D02*
X0177014Y0106506D01*
X0167014Y0106506D02*
X0162340Y0106506D01*
X0162322Y0106525D02*
X0160606Y0107235D01*
X0158749Y0107235D01*
X0157033Y0106525D01*
X0155719Y0105211D01*
X0155009Y0103496D01*
X0155009Y0101638D01*
X0155719Y0099922D01*
X0157033Y0098609D01*
X0158749Y0097898D01*
X0160606Y0097898D01*
X0162322Y0098609D01*
X0163635Y0099922D01*
X0164346Y0101638D01*
X0164346Y0103496D01*
X0163635Y0105211D01*
X0162322Y0106525D01*
X0163339Y0105507D02*
X0166015Y0105507D01*
X0165428Y0104509D02*
X0163926Y0104509D01*
X0164340Y0103510D02*
X0165015Y0103510D01*
X0165009Y0102512D02*
X0164346Y0102512D01*
X0164294Y0101513D02*
X0165060Y0101513D01*
X0165474Y0100515D02*
X0163880Y0100515D01*
X0163229Y0099516D02*
X0166125Y0099516D01*
X0167253Y0098518D02*
X0162101Y0098518D01*
X0160606Y0097235D02*
X0158749Y0097235D01*
X0157033Y0096525D01*
X0155719Y0095211D01*
X0155009Y0093496D01*
X0155009Y0091638D01*
X0155719Y0089922D01*
X0157033Y0088609D01*
X0158749Y0087898D01*
X0160606Y0087898D01*
X0162322Y0088609D01*
X0163635Y0089922D01*
X0164346Y0091638D01*
X0164346Y0093496D01*
X0163635Y0095211D01*
X0162322Y0096525D01*
X0160606Y0097235D01*
X0162326Y0096521D02*
X0167029Y0096521D01*
X0166030Y0095522D02*
X0163324Y0095522D01*
X0163920Y0094524D02*
X0165435Y0094524D01*
X0165021Y0093525D02*
X0164333Y0093525D01*
X0164346Y0092527D02*
X0165009Y0092527D01*
X0165054Y0091528D02*
X0164300Y0091528D01*
X0163886Y0090530D02*
X0165468Y0090530D01*
X0166111Y0089531D02*
X0163244Y0089531D01*
X0162137Y0088533D02*
X0167217Y0088533D01*
X0157217Y0088533D02*
X0152137Y0088533D01*
X0152322Y0088609D02*
X0153635Y0089922D01*
X0154346Y0091638D01*
X0154346Y0093496D01*
X0153635Y0095211D01*
X0152322Y0096525D01*
X0150606Y0097235D01*
X0148749Y0097235D01*
X0147033Y0096525D01*
X0145719Y0095211D01*
X0145009Y0093496D01*
X0145009Y0091638D01*
X0145719Y0089922D01*
X0147033Y0088609D01*
X0148749Y0087898D01*
X0150606Y0087898D01*
X0152322Y0088609D01*
X0153244Y0089531D02*
X0156111Y0089531D01*
X0155468Y0090530D02*
X0153886Y0090530D01*
X0154300Y0091528D02*
X0155054Y0091528D01*
X0155009Y0092527D02*
X0154346Y0092527D01*
X0154333Y0093525D02*
X0155021Y0093525D01*
X0155435Y0094524D02*
X0153920Y0094524D01*
X0153324Y0095522D02*
X0156030Y0095522D01*
X0157029Y0096521D02*
X0152326Y0096521D01*
X0152101Y0098518D02*
X0157253Y0098518D01*
X0156125Y0099516D02*
X0153229Y0099516D01*
X0153635Y0099922D02*
X0154346Y0101638D01*
X0154346Y0103496D01*
X0153635Y0105211D01*
X0152322Y0106525D01*
X0150606Y0107235D01*
X0148749Y0107235D01*
X0147033Y0106525D01*
X0145719Y0105211D01*
X0145009Y0103496D01*
X0145009Y0101638D01*
X0145719Y0099922D01*
X0147033Y0098609D01*
X0148749Y0097898D01*
X0150606Y0097898D01*
X0152322Y0098609D01*
X0153635Y0099922D01*
X0153880Y0100515D02*
X0155474Y0100515D01*
X0155060Y0101513D02*
X0154294Y0101513D01*
X0154346Y0102512D02*
X0155009Y0102512D01*
X0155015Y0103510D02*
X0154340Y0103510D01*
X0153926Y0104509D02*
X0155428Y0104509D01*
X0156015Y0105507D02*
X0153339Y0105507D01*
X0152340Y0106506D02*
X0157014Y0106506D01*
X0147014Y0106506D02*
X0142340Y0106506D01*
X0142322Y0106525D02*
X0140606Y0107235D01*
X0138749Y0107235D01*
X0137033Y0106525D01*
X0135719Y0105211D01*
X0135009Y0103496D01*
X0135009Y0101638D01*
X0135719Y0099922D01*
X0137033Y0098609D01*
X0138749Y0097898D01*
X0140606Y0097898D01*
X0142322Y0098609D01*
X0143635Y0099922D01*
X0144346Y0101638D01*
X0144346Y0103496D01*
X0143635Y0105211D01*
X0142322Y0106525D01*
X0143339Y0105507D02*
X0146015Y0105507D01*
X0145428Y0104509D02*
X0143926Y0104509D01*
X0144340Y0103510D02*
X0145015Y0103510D01*
X0145009Y0102512D02*
X0144346Y0102512D01*
X0144294Y0101513D02*
X0145060Y0101513D01*
X0145474Y0100515D02*
X0143880Y0100515D01*
X0143229Y0099516D02*
X0146125Y0099516D01*
X0147253Y0098518D02*
X0142101Y0098518D01*
X0140606Y0097235D02*
X0138749Y0097235D01*
X0137033Y0096525D01*
X0135719Y0095211D01*
X0135009Y0093496D01*
X0135009Y0091638D01*
X0135719Y0089922D01*
X0137033Y0088609D01*
X0138749Y0087898D01*
X0140606Y0087898D01*
X0142322Y0088609D01*
X0143635Y0089922D01*
X0144346Y0091638D01*
X0144346Y0093496D01*
X0143635Y0095211D01*
X0142322Y0096525D01*
X0140606Y0097235D01*
X0142326Y0096521D02*
X0147029Y0096521D01*
X0146030Y0095522D02*
X0143324Y0095522D01*
X0143920Y0094524D02*
X0145435Y0094524D01*
X0145021Y0093525D02*
X0144333Y0093525D01*
X0144346Y0092527D02*
X0145009Y0092527D01*
X0145054Y0091528D02*
X0144300Y0091528D01*
X0143886Y0090530D02*
X0145468Y0090530D01*
X0146111Y0089531D02*
X0143244Y0089531D01*
X0142137Y0088533D02*
X0147217Y0088533D01*
X0137217Y0088533D02*
X0132137Y0088533D01*
X0132322Y0088609D02*
X0133635Y0089922D01*
X0134346Y0091638D01*
X0134346Y0093496D01*
X0133635Y0095211D01*
X0132322Y0096525D01*
X0130606Y0097235D01*
X0128749Y0097235D01*
X0127033Y0096525D01*
X0125719Y0095211D01*
X0125009Y0093496D01*
X0125009Y0091638D01*
X0125719Y0089922D01*
X0127033Y0088609D01*
X0128749Y0087898D01*
X0130606Y0087898D01*
X0132322Y0088609D01*
X0133244Y0089531D02*
X0136111Y0089531D01*
X0135468Y0090530D02*
X0133886Y0090530D01*
X0134300Y0091528D02*
X0135054Y0091528D01*
X0135009Y0092527D02*
X0134346Y0092527D01*
X0134333Y0093525D02*
X0135021Y0093525D01*
X0135435Y0094524D02*
X0133920Y0094524D01*
X0133324Y0095522D02*
X0136030Y0095522D01*
X0137029Y0096521D02*
X0132326Y0096521D01*
X0132101Y0098518D02*
X0137253Y0098518D01*
X0136125Y0099516D02*
X0133229Y0099516D01*
X0133635Y0099922D02*
X0134346Y0101638D01*
X0134346Y0103496D01*
X0133635Y0105211D01*
X0132322Y0106525D01*
X0130606Y0107235D01*
X0128749Y0107235D01*
X0127033Y0106525D01*
X0125719Y0105211D01*
X0125009Y0103496D01*
X0125009Y0101638D01*
X0125719Y0099922D01*
X0127033Y0098609D01*
X0128749Y0097898D01*
X0130606Y0097898D01*
X0132322Y0098609D01*
X0133635Y0099922D01*
X0133880Y0100515D02*
X0135474Y0100515D01*
X0135060Y0101513D02*
X0134294Y0101513D01*
X0134346Y0102512D02*
X0135009Y0102512D01*
X0135015Y0103510D02*
X0134340Y0103510D01*
X0133926Y0104509D02*
X0135428Y0104509D01*
X0136015Y0105507D02*
X0133339Y0105507D01*
X0132340Y0106506D02*
X0137014Y0106506D01*
X0127014Y0106506D02*
X0122340Y0106506D01*
X0122322Y0106525D02*
X0120606Y0107235D01*
X0118749Y0107235D01*
X0117033Y0106525D01*
X0115719Y0105211D01*
X0115009Y0103496D01*
X0115009Y0101638D01*
X0115719Y0099922D01*
X0117033Y0098609D01*
X0118749Y0097898D01*
X0120606Y0097898D01*
X0122322Y0098609D01*
X0123635Y0099922D01*
X0124346Y0101638D01*
X0124346Y0103496D01*
X0123635Y0105211D01*
X0122322Y0106525D01*
X0123339Y0105507D02*
X0126015Y0105507D01*
X0125428Y0104509D02*
X0123926Y0104509D01*
X0124340Y0103510D02*
X0125015Y0103510D01*
X0125009Y0102512D02*
X0124346Y0102512D01*
X0124294Y0101513D02*
X0125060Y0101513D01*
X0125474Y0100515D02*
X0123880Y0100515D01*
X0123229Y0099516D02*
X0126125Y0099516D01*
X0127253Y0098518D02*
X0122101Y0098518D01*
X0120606Y0097235D02*
X0118749Y0097235D01*
X0117033Y0096525D01*
X0115719Y0095211D01*
X0115009Y0093496D01*
X0115009Y0091638D01*
X0115719Y0089922D01*
X0117033Y0088609D01*
X0118749Y0087898D01*
X0120606Y0087898D01*
X0122322Y0088609D01*
X0123635Y0089922D01*
X0124346Y0091638D01*
X0124346Y0093496D01*
X0123635Y0095211D01*
X0122322Y0096525D01*
X0120606Y0097235D01*
X0122326Y0096521D02*
X0127029Y0096521D01*
X0126030Y0095522D02*
X0123324Y0095522D01*
X0123920Y0094524D02*
X0125435Y0094524D01*
X0125021Y0093525D02*
X0124333Y0093525D01*
X0124346Y0092527D02*
X0125009Y0092527D01*
X0125054Y0091528D02*
X0124300Y0091528D01*
X0123886Y0090530D02*
X0125468Y0090530D01*
X0126111Y0089531D02*
X0123244Y0089531D01*
X0122137Y0088533D02*
X0127217Y0088533D01*
X0117217Y0088533D02*
X0112137Y0088533D01*
X0112322Y0088609D02*
X0113635Y0089922D01*
X0114346Y0091638D01*
X0114346Y0093496D01*
X0113635Y0095211D01*
X0112322Y0096525D01*
X0110606Y0097235D01*
X0108749Y0097235D01*
X0107033Y0096525D01*
X0105719Y0095211D01*
X0105009Y0093496D01*
X0105009Y0091638D01*
X0105719Y0089922D01*
X0107033Y0088609D01*
X0108749Y0087898D01*
X0110606Y0087898D01*
X0112322Y0088609D01*
X0113244Y0089531D02*
X0116111Y0089531D01*
X0115468Y0090530D02*
X0113886Y0090530D01*
X0114300Y0091528D02*
X0115054Y0091528D01*
X0115009Y0092527D02*
X0114346Y0092527D01*
X0114333Y0093525D02*
X0115021Y0093525D01*
X0115435Y0094524D02*
X0113920Y0094524D01*
X0113324Y0095522D02*
X0116030Y0095522D01*
X0117029Y0096521D02*
X0112326Y0096521D01*
X0112101Y0098518D02*
X0117253Y0098518D01*
X0116125Y0099516D02*
X0113229Y0099516D01*
X0113635Y0099922D02*
X0114346Y0101638D01*
X0114346Y0103496D01*
X0113635Y0105211D01*
X0112322Y0106525D01*
X0110606Y0107235D01*
X0108749Y0107235D01*
X0107033Y0106525D01*
X0105719Y0105211D01*
X0105009Y0103496D01*
X0105009Y0101638D01*
X0105719Y0099922D01*
X0107033Y0098609D01*
X0108749Y0097898D01*
X0110606Y0097898D01*
X0112322Y0098609D01*
X0113635Y0099922D01*
X0113880Y0100515D02*
X0115474Y0100515D01*
X0115060Y0101513D02*
X0114294Y0101513D01*
X0114346Y0102512D02*
X0115009Y0102512D01*
X0115015Y0103510D02*
X0114340Y0103510D01*
X0113926Y0104509D02*
X0115428Y0104509D01*
X0116015Y0105507D02*
X0113339Y0105507D01*
X0112340Y0106506D02*
X0117014Y0106506D01*
X0107014Y0106506D02*
X0102340Y0106506D01*
X0102322Y0106525D02*
X0100606Y0107235D01*
X0098749Y0107235D01*
X0097033Y0106525D01*
X0095719Y0105211D01*
X0095009Y0103496D01*
X0095009Y0101638D01*
X0095719Y0099922D01*
X0097033Y0098609D01*
X0098749Y0097898D01*
X0100606Y0097898D01*
X0102322Y0098609D01*
X0103635Y0099922D01*
X0104346Y0101638D01*
X0104346Y0103496D01*
X0103635Y0105211D01*
X0102322Y0106525D01*
X0103339Y0105507D02*
X0106015Y0105507D01*
X0105428Y0104509D02*
X0103926Y0104509D01*
X0104340Y0103510D02*
X0105015Y0103510D01*
X0105009Y0102512D02*
X0104346Y0102512D01*
X0104294Y0101513D02*
X0105060Y0101513D01*
X0105474Y0100515D02*
X0103880Y0100515D01*
X0103229Y0099516D02*
X0106125Y0099516D01*
X0107253Y0098518D02*
X0102101Y0098518D01*
X0100606Y0097235D02*
X0098749Y0097235D01*
X0097033Y0096525D01*
X0095719Y0095211D01*
X0095009Y0093496D01*
X0095009Y0091638D01*
X0095719Y0089922D01*
X0097033Y0088609D01*
X0098749Y0087898D01*
X0100606Y0087898D01*
X0102322Y0088609D01*
X0103635Y0089922D01*
X0104346Y0091638D01*
X0104346Y0093496D01*
X0103635Y0095211D01*
X0102322Y0096525D01*
X0100606Y0097235D01*
X0102326Y0096521D02*
X0107029Y0096521D01*
X0106030Y0095522D02*
X0103324Y0095522D01*
X0103920Y0094524D02*
X0105435Y0094524D01*
X0105021Y0093525D02*
X0104333Y0093525D01*
X0104346Y0092527D02*
X0105009Y0092527D01*
X0105054Y0091528D02*
X0104300Y0091528D01*
X0103886Y0090530D02*
X0105468Y0090530D01*
X0106111Y0089531D02*
X0103244Y0089531D01*
X0102137Y0088533D02*
X0107217Y0088533D01*
X0097217Y0088533D02*
X0092137Y0088533D01*
X0092322Y0088609D02*
X0093635Y0089922D01*
X0094346Y0091638D01*
X0094346Y0093496D01*
X0093635Y0095211D01*
X0092322Y0096525D01*
X0090606Y0097235D01*
X0088749Y0097235D01*
X0087033Y0096525D01*
X0085719Y0095211D01*
X0085009Y0093496D01*
X0085009Y0091638D01*
X0085719Y0089922D01*
X0087033Y0088609D01*
X0088749Y0087898D01*
X0090606Y0087898D01*
X0092322Y0088609D01*
X0093244Y0089531D02*
X0096111Y0089531D01*
X0095468Y0090530D02*
X0093886Y0090530D01*
X0094300Y0091528D02*
X0095054Y0091528D01*
X0095009Y0092527D02*
X0094346Y0092527D01*
X0094333Y0093525D02*
X0095021Y0093525D01*
X0095435Y0094524D02*
X0093920Y0094524D01*
X0093324Y0095522D02*
X0096030Y0095522D01*
X0097029Y0096521D02*
X0092326Y0096521D01*
X0092101Y0098518D02*
X0097253Y0098518D01*
X0096125Y0099516D02*
X0093229Y0099516D01*
X0093635Y0099922D02*
X0094346Y0101638D01*
X0094346Y0103496D01*
X0093635Y0105211D01*
X0092322Y0106525D01*
X0090606Y0107235D01*
X0088749Y0107235D01*
X0087033Y0106525D01*
X0085719Y0105211D01*
X0085009Y0103496D01*
X0085009Y0101638D01*
X0085719Y0099922D01*
X0087033Y0098609D01*
X0088749Y0097898D01*
X0090606Y0097898D01*
X0092322Y0098609D01*
X0093635Y0099922D01*
X0093880Y0100515D02*
X0095474Y0100515D01*
X0095060Y0101513D02*
X0094294Y0101513D01*
X0094346Y0102512D02*
X0095009Y0102512D01*
X0095015Y0103510D02*
X0094340Y0103510D01*
X0093926Y0104509D02*
X0095428Y0104509D01*
X0096015Y0105507D02*
X0093339Y0105507D01*
X0092340Y0106506D02*
X0097014Y0106506D01*
X0087014Y0106506D02*
X0082340Y0106506D01*
X0082322Y0106525D02*
X0080606Y0107235D01*
X0078749Y0107235D01*
X0077033Y0106525D01*
X0075719Y0105211D01*
X0075009Y0103496D01*
X0075009Y0101638D01*
X0075719Y0099922D01*
X0077033Y0098609D01*
X0078749Y0097898D01*
X0080606Y0097898D01*
X0082322Y0098609D01*
X0083635Y0099922D01*
X0084346Y0101638D01*
X0084346Y0103496D01*
X0083635Y0105211D01*
X0082322Y0106525D01*
X0083339Y0105507D02*
X0086015Y0105507D01*
X0085428Y0104509D02*
X0083926Y0104509D01*
X0084340Y0103510D02*
X0085015Y0103510D01*
X0085009Y0102512D02*
X0084346Y0102512D01*
X0084294Y0101513D02*
X0085060Y0101513D01*
X0085474Y0100515D02*
X0083880Y0100515D01*
X0083229Y0099516D02*
X0086125Y0099516D01*
X0087253Y0098518D02*
X0082101Y0098518D01*
X0080606Y0097235D02*
X0078749Y0097235D01*
X0077033Y0096525D01*
X0075719Y0095211D01*
X0075009Y0093496D01*
X0075009Y0091638D01*
X0075719Y0089922D01*
X0077033Y0088609D01*
X0078749Y0087898D01*
X0080606Y0087898D01*
X0082322Y0088609D01*
X0083635Y0089922D01*
X0084346Y0091638D01*
X0084346Y0093496D01*
X0083635Y0095211D01*
X0082322Y0096525D01*
X0080606Y0097235D01*
X0082326Y0096521D02*
X0087029Y0096521D01*
X0086030Y0095522D02*
X0083324Y0095522D01*
X0083920Y0094524D02*
X0085435Y0094524D01*
X0085021Y0093525D02*
X0084333Y0093525D01*
X0084346Y0092527D02*
X0085009Y0092527D01*
X0085054Y0091528D02*
X0084300Y0091528D01*
X0083886Y0090530D02*
X0085468Y0090530D01*
X0086111Y0089531D02*
X0083244Y0089531D01*
X0082137Y0088533D02*
X0087217Y0088533D01*
X0077217Y0088533D02*
X0062137Y0088533D01*
X0062322Y0088609D02*
X0063635Y0089922D01*
X0064346Y0091638D01*
X0064346Y0093496D01*
X0063635Y0095211D01*
X0062322Y0096525D01*
X0060606Y0097235D01*
X0058749Y0097235D01*
X0057033Y0096525D01*
X0055719Y0095211D01*
X0055009Y0093496D01*
X0055009Y0091638D01*
X0055719Y0089922D01*
X0057033Y0088609D01*
X0058749Y0087898D01*
X0060606Y0087898D01*
X0062322Y0088609D01*
X0063244Y0089531D02*
X0076111Y0089531D01*
X0075468Y0090530D02*
X0063886Y0090530D01*
X0064300Y0091528D02*
X0075054Y0091528D01*
X0075009Y0092527D02*
X0064346Y0092527D01*
X0064333Y0093525D02*
X0075021Y0093525D01*
X0075435Y0094524D02*
X0063920Y0094524D01*
X0063324Y0095522D02*
X0076030Y0095522D01*
X0077029Y0096521D02*
X0062326Y0096521D01*
X0062101Y0098518D02*
X0077253Y0098518D01*
X0076125Y0099516D02*
X0063229Y0099516D01*
X0063635Y0099922D02*
X0062322Y0098609D01*
X0060606Y0097898D01*
X0058749Y0097898D01*
X0057033Y0098609D01*
X0055719Y0099922D01*
X0055009Y0101638D01*
X0055009Y0103496D01*
X0055719Y0105211D01*
X0057033Y0106525D01*
X0058749Y0107235D01*
X0060606Y0107235D01*
X0062322Y0106525D01*
X0063635Y0105211D01*
X0064346Y0103496D01*
X0064346Y0101638D01*
X0063635Y0099922D01*
X0063880Y0100515D02*
X0075474Y0100515D01*
X0075060Y0101513D02*
X0064294Y0101513D01*
X0064346Y0102512D02*
X0075009Y0102512D01*
X0075015Y0103510D02*
X0064340Y0103510D01*
X0063926Y0104509D02*
X0075428Y0104509D01*
X0076015Y0105507D02*
X0063339Y0105507D01*
X0062340Y0106506D02*
X0077014Y0106506D01*
X0057014Y0106506D02*
X0052340Y0106506D01*
X0052322Y0106525D02*
X0050606Y0107235D01*
X0048749Y0107235D01*
X0047033Y0106525D01*
X0045719Y0105211D01*
X0045009Y0103496D01*
X0045009Y0101638D01*
X0045719Y0099922D01*
X0047033Y0098609D01*
X0048749Y0097898D01*
X0050606Y0097898D01*
X0052322Y0098609D01*
X0053635Y0099922D01*
X0054346Y0101638D01*
X0054346Y0103496D01*
X0053635Y0105211D01*
X0052322Y0106525D01*
X0053339Y0105507D02*
X0056015Y0105507D01*
X0055428Y0104509D02*
X0053926Y0104509D01*
X0054340Y0103510D02*
X0055015Y0103510D01*
X0055009Y0102512D02*
X0054346Y0102512D01*
X0054294Y0101513D02*
X0055060Y0101513D01*
X0055474Y0100515D02*
X0053880Y0100515D01*
X0053229Y0099516D02*
X0056125Y0099516D01*
X0057253Y0098518D02*
X0052101Y0098518D01*
X0050606Y0097235D02*
X0048749Y0097235D01*
X0047033Y0096525D01*
X0045719Y0095211D01*
X0045009Y0093496D01*
X0045009Y0091638D01*
X0045719Y0089922D01*
X0047033Y0088609D01*
X0048749Y0087898D01*
X0050606Y0087898D01*
X0052322Y0088609D01*
X0053635Y0089922D01*
X0054346Y0091638D01*
X0054346Y0093496D01*
X0053635Y0095211D01*
X0052322Y0096525D01*
X0050606Y0097235D01*
X0052326Y0096521D02*
X0057029Y0096521D01*
X0056030Y0095522D02*
X0053324Y0095522D01*
X0053920Y0094524D02*
X0055435Y0094524D01*
X0055021Y0093525D02*
X0054333Y0093525D01*
X0054346Y0092527D02*
X0055009Y0092527D01*
X0055054Y0091528D02*
X0054300Y0091528D01*
X0053886Y0090530D02*
X0055468Y0090530D01*
X0056111Y0089531D02*
X0053244Y0089531D01*
X0052137Y0088533D02*
X0057217Y0088533D01*
X0047217Y0088533D02*
X0041602Y0088533D01*
X0041392Y0088426D02*
X0042019Y0088745D01*
X0042588Y0089159D01*
X0043086Y0089656D01*
X0043499Y0090225D01*
X0043818Y0090852D01*
X0044036Y0091521D01*
X0044125Y0092083D01*
X0040161Y0092083D01*
X0040161Y0088119D01*
X0040724Y0088208D01*
X0041392Y0088426D01*
X0040161Y0088533D02*
X0039193Y0088533D01*
X0039193Y0088119D02*
X0039193Y0092083D01*
X0035230Y0092083D01*
X0035319Y0091521D01*
X0035536Y0090852D01*
X0035855Y0090225D01*
X0036269Y0089656D01*
X0036766Y0089159D01*
X0037335Y0088745D01*
X0037962Y0088426D01*
X0038631Y0088208D01*
X0039193Y0088119D01*
X0039193Y0089531D02*
X0040161Y0089531D01*
X0040161Y0090530D02*
X0039193Y0090530D01*
X0039193Y0091528D02*
X0040161Y0091528D01*
X0040161Y0092083D02*
X0039193Y0092083D01*
X0039193Y0093051D01*
X0035230Y0093051D01*
X0035319Y0093613D01*
X0035536Y0094282D01*
X0035855Y0094909D01*
X0036269Y0095478D01*
X0036766Y0095975D01*
X0037335Y0096389D01*
X0037962Y0096708D01*
X0038631Y0096925D01*
X0039193Y0097014D01*
X0039193Y0093051D01*
X0040161Y0093051D01*
X0040161Y0097014D01*
X0040724Y0096925D01*
X0041392Y0096708D01*
X0042019Y0096389D01*
X0042588Y0095975D01*
X0043086Y0095478D01*
X0043499Y0094909D01*
X0043818Y0094282D01*
X0044036Y0093613D01*
X0044125Y0093051D01*
X0040161Y0093051D01*
X0040161Y0092083D01*
X0040161Y0092527D02*
X0045009Y0092527D01*
X0045021Y0093525D02*
X0044050Y0093525D01*
X0043695Y0094524D02*
X0045435Y0094524D01*
X0046030Y0095522D02*
X0043041Y0095522D01*
X0041760Y0096521D02*
X0047029Y0096521D01*
X0047253Y0098518D02*
X0041573Y0098518D01*
X0041392Y0098426D02*
X0042019Y0098745D01*
X0042588Y0099159D01*
X0043086Y0099656D01*
X0043499Y0100225D01*
X0043818Y0100852D01*
X0044036Y0101521D01*
X0044125Y0102083D01*
X0040161Y0102083D01*
X0040161Y0098119D01*
X0040724Y0098208D01*
X0041392Y0098426D01*
X0040161Y0098518D02*
X0039193Y0098518D01*
X0039193Y0098119D02*
X0039193Y0102083D01*
X0035230Y0102083D01*
X0035319Y0101521D01*
X0035536Y0100852D01*
X0035855Y0100225D01*
X0036269Y0099656D01*
X0036766Y0099159D01*
X0037335Y0098745D01*
X0037962Y0098426D01*
X0038631Y0098208D01*
X0039193Y0098119D01*
X0039193Y0099516D02*
X0040161Y0099516D01*
X0040161Y0100515D02*
X0039193Y0100515D01*
X0039193Y0101513D02*
X0040161Y0101513D01*
X0040161Y0102083D02*
X0039193Y0102083D01*
X0039193Y0103051D01*
X0035230Y0103051D01*
X0035319Y0103613D01*
X0035536Y0104282D01*
X0035855Y0104909D01*
X0036269Y0105478D01*
X0036766Y0105975D01*
X0037335Y0106389D01*
X0037962Y0106708D01*
X0038631Y0106925D01*
X0039193Y0107014D01*
X0039193Y0103051D01*
X0040161Y0103051D01*
X0040161Y0107014D01*
X0040724Y0106925D01*
X0041392Y0106708D01*
X0042019Y0106389D01*
X0042588Y0105975D01*
X0043086Y0105478D01*
X0043499Y0104909D01*
X0043818Y0104282D01*
X0044036Y0103613D01*
X0044125Y0103051D01*
X0040161Y0103051D01*
X0040161Y0102083D01*
X0040161Y0102512D02*
X0045009Y0102512D01*
X0045015Y0103510D02*
X0044052Y0103510D01*
X0043703Y0104509D02*
X0045428Y0104509D01*
X0046015Y0105507D02*
X0043056Y0105507D01*
X0041789Y0106506D02*
X0047014Y0106506D01*
X0040161Y0106506D02*
X0039193Y0106506D01*
X0039193Y0105507D02*
X0040161Y0105507D01*
X0040161Y0104509D02*
X0039193Y0104509D01*
X0039193Y0103510D02*
X0040161Y0103510D01*
X0039193Y0102512D02*
X0034346Y0102512D01*
X0034346Y0101638D02*
X0033635Y0099922D01*
X0032322Y0098609D01*
X0030606Y0097898D01*
X0028749Y0097898D01*
X0027033Y0098609D01*
X0025719Y0099922D01*
X0025009Y0101638D01*
X0025009Y0103496D01*
X0025719Y0105211D01*
X0027033Y0106525D01*
X0028749Y0107235D01*
X0030606Y0107235D01*
X0032322Y0106525D01*
X0033635Y0105211D01*
X0034346Y0103496D01*
X0034346Y0101638D01*
X0034294Y0101513D02*
X0035321Y0101513D01*
X0035708Y0100515D02*
X0033880Y0100515D01*
X0033229Y0099516D02*
X0036408Y0099516D01*
X0037781Y0098518D02*
X0032101Y0098518D01*
X0030606Y0097235D02*
X0028749Y0097235D01*
X0027033Y0096525D01*
X0025719Y0095211D01*
X0025009Y0093496D01*
X0025009Y0091638D01*
X0025719Y0089922D01*
X0027033Y0088609D01*
X0028749Y0087898D01*
X0030606Y0087898D01*
X0032322Y0088609D01*
X0033635Y0089922D01*
X0034346Y0091638D01*
X0034346Y0093496D01*
X0033635Y0095211D01*
X0032322Y0096525D01*
X0030606Y0097235D01*
X0032326Y0096521D02*
X0037594Y0096521D01*
X0039193Y0096521D02*
X0040161Y0096521D01*
X0040161Y0095522D02*
X0039193Y0095522D01*
X0039193Y0094524D02*
X0040161Y0094524D01*
X0040161Y0093525D02*
X0039193Y0093525D01*
X0039193Y0092527D02*
X0034346Y0092527D01*
X0034333Y0093525D02*
X0035305Y0093525D01*
X0035659Y0094524D02*
X0033920Y0094524D01*
X0033324Y0095522D02*
X0036313Y0095522D01*
X0042946Y0099516D02*
X0046125Y0099516D01*
X0045474Y0100515D02*
X0043647Y0100515D01*
X0044033Y0101513D02*
X0045060Y0101513D01*
X0037565Y0106506D02*
X0032340Y0106506D01*
X0033339Y0105507D02*
X0036298Y0105507D01*
X0035652Y0104509D02*
X0033926Y0104509D01*
X0034340Y0103510D02*
X0035302Y0103510D01*
X0027014Y0106506D02*
X0009937Y0106506D01*
X0009937Y0107504D02*
X0386764Y0107504D01*
X0386764Y0106506D02*
X0232340Y0106506D01*
X0233339Y0105507D02*
X0386764Y0105507D01*
X0386764Y0104509D02*
X0233926Y0104509D01*
X0234340Y0103510D02*
X0386764Y0103510D01*
X0386764Y0102512D02*
X0234346Y0102512D01*
X0234294Y0101513D02*
X0386764Y0101513D01*
X0386764Y0100515D02*
X0233880Y0100515D01*
X0233229Y0099516D02*
X0386764Y0099516D01*
X0386764Y0098518D02*
X0232101Y0098518D01*
X0232326Y0096521D02*
X0386764Y0096521D01*
X0386764Y0097519D02*
X0009937Y0097519D01*
X0009937Y0096521D02*
X0027029Y0096521D01*
X0026030Y0095522D02*
X0009937Y0095522D01*
X0009937Y0094524D02*
X0025435Y0094524D01*
X0025021Y0093525D02*
X0009937Y0093525D01*
X0009937Y0092527D02*
X0025009Y0092527D01*
X0025054Y0091528D02*
X0009937Y0091528D01*
X0009937Y0090530D02*
X0025468Y0090530D01*
X0026111Y0089531D02*
X0009937Y0089531D01*
X0009937Y0088533D02*
X0027217Y0088533D01*
X0032137Y0088533D02*
X0037752Y0088533D01*
X0036393Y0089531D02*
X0033244Y0089531D01*
X0033886Y0090530D02*
X0035700Y0090530D01*
X0035317Y0091528D02*
X0034300Y0091528D01*
X0042961Y0089531D02*
X0046111Y0089531D01*
X0045468Y0090530D02*
X0043654Y0090530D01*
X0044037Y0091528D02*
X0045054Y0091528D01*
X0027253Y0098518D02*
X0009937Y0098518D01*
X0009937Y0099516D02*
X0026125Y0099516D01*
X0025474Y0100515D02*
X0009937Y0100515D01*
X0009937Y0101513D02*
X0025060Y0101513D01*
X0025009Y0102512D02*
X0009937Y0102512D01*
X0009937Y0103510D02*
X0025015Y0103510D01*
X0025428Y0104509D02*
X0009937Y0104509D01*
X0009937Y0105507D02*
X0026015Y0105507D01*
X0009937Y0108503D02*
X0386764Y0108503D01*
X0386764Y0109501D02*
X0009937Y0109501D01*
X0009937Y0110500D02*
X0386764Y0110500D01*
X0386764Y0111498D02*
X0009937Y0111498D01*
X0009937Y0112497D02*
X0341176Y0112497D01*
X0350801Y0112497D02*
X0364109Y0112497D01*
X0364689Y0112257D02*
X0366657Y0112257D01*
X0368476Y0113010D01*
X0369868Y0114402D01*
X0370621Y0116220D01*
X0370621Y0118189D01*
X0369868Y0120008D01*
X0368476Y0121399D01*
X0366657Y0122153D01*
X0364689Y0122153D01*
X0362870Y0121399D01*
X0361478Y0120008D01*
X0360725Y0118189D01*
X0360725Y0116220D01*
X0361478Y0114402D01*
X0362870Y0113010D01*
X0364689Y0112257D01*
X0367238Y0112497D02*
X0386764Y0112497D01*
X0386764Y0113496D02*
X0368962Y0113496D01*
X0369906Y0114494D02*
X0386764Y0114494D01*
X0386764Y0115493D02*
X0370320Y0115493D01*
X0370621Y0116491D02*
X0386764Y0116491D01*
X0386764Y0117490D02*
X0370621Y0117490D01*
X0370497Y0118488D02*
X0386764Y0118488D01*
X0386764Y0119487D02*
X0370084Y0119487D01*
X0369390Y0120485D02*
X0386764Y0120485D01*
X0386764Y0121484D02*
X0368273Y0121484D01*
X0363074Y0121484D02*
X0351836Y0121484D01*
X0352953Y0120485D02*
X0361956Y0120485D01*
X0361263Y0119487D02*
X0353647Y0119487D01*
X0354060Y0118488D02*
X0360849Y0118488D01*
X0360725Y0117490D02*
X0354184Y0117490D01*
X0354184Y0116491D02*
X0360725Y0116491D01*
X0361027Y0115493D02*
X0353883Y0115493D01*
X0353469Y0114494D02*
X0361440Y0114494D01*
X0362385Y0113496D02*
X0352525Y0113496D01*
X0351283Y0126476D02*
X0363627Y0126476D01*
X0362185Y0127475D02*
X0352724Y0127475D01*
X0353552Y0128473D02*
X0361358Y0128473D01*
X0360944Y0129472D02*
X0353965Y0129472D01*
X0354184Y0130470D02*
X0360725Y0130470D01*
X0360725Y0131469D02*
X0354184Y0131469D01*
X0353978Y0132467D02*
X0360932Y0132467D01*
X0361345Y0133466D02*
X0353564Y0133466D01*
X0352754Y0134464D02*
X0362156Y0134464D01*
X0363555Y0135463D02*
X0351354Y0135463D01*
X0338412Y0133466D02*
X0009937Y0133466D01*
X0009937Y0134464D02*
X0218091Y0134464D01*
X0218218Y0134338D02*
X0216904Y0135651D01*
X0216194Y0137367D01*
X0216194Y0139224D01*
X0216904Y0140940D01*
X0218218Y0142253D01*
X0219934Y0142964D01*
X0221791Y0142964D01*
X0223507Y0142253D01*
X0224820Y0140940D01*
X0225531Y0139224D01*
X0225531Y0137367D01*
X0224820Y0135651D01*
X0223507Y0134338D01*
X0221791Y0133627D01*
X0219934Y0133627D01*
X0218218Y0134338D01*
X0217092Y0135463D02*
X0009937Y0135463D01*
X0009937Y0136461D02*
X0216569Y0136461D01*
X0216194Y0137460D02*
X0009937Y0137460D01*
X0009937Y0138458D02*
X0216194Y0138458D01*
X0216290Y0139457D02*
X0009937Y0139457D01*
X0009937Y0140455D02*
X0216704Y0140455D01*
X0217419Y0141454D02*
X0009937Y0141454D01*
X0009937Y0142452D02*
X0218699Y0142452D01*
X0223026Y0142452D02*
X0228699Y0142452D01*
X0227419Y0141454D02*
X0224306Y0141454D01*
X0225021Y0140455D02*
X0226704Y0140455D01*
X0226290Y0139457D02*
X0225434Y0139457D01*
X0225531Y0138458D02*
X0226194Y0138458D01*
X0226194Y0137460D02*
X0225531Y0137460D01*
X0225156Y0136461D02*
X0226569Y0136461D01*
X0227092Y0135463D02*
X0224632Y0135463D01*
X0223633Y0134464D02*
X0228091Y0134464D01*
X0228735Y0132467D02*
X0222990Y0132467D01*
X0224291Y0131469D02*
X0227433Y0131469D01*
X0226710Y0130470D02*
X0225014Y0130470D01*
X0225428Y0129472D02*
X0226296Y0129472D01*
X0226194Y0128473D02*
X0225531Y0128473D01*
X0225531Y0127475D02*
X0226194Y0127475D01*
X0226563Y0126476D02*
X0225162Y0126476D01*
X0224647Y0125478D02*
X0227078Y0125478D01*
X0228076Y0124479D02*
X0223648Y0124479D01*
X0217078Y0125478D02*
X0009937Y0125478D01*
X0009937Y0126476D02*
X0216563Y0126476D01*
X0216194Y0127475D02*
X0009937Y0127475D01*
X0009937Y0128473D02*
X0216194Y0128473D01*
X0216296Y0129472D02*
X0009937Y0129472D01*
X0009937Y0130470D02*
X0216710Y0130470D01*
X0217433Y0131469D02*
X0009937Y0131469D01*
X0009937Y0132467D02*
X0218735Y0132467D01*
X0233324Y0095522D02*
X0386764Y0095522D01*
X0386764Y0094524D02*
X0233920Y0094524D01*
X0234333Y0093525D02*
X0386764Y0093525D01*
X0386764Y0092527D02*
X0366895Y0092527D01*
X0366657Y0092625D02*
X0364689Y0092625D01*
X0362870Y0091872D01*
X0361478Y0090480D01*
X0360725Y0088661D01*
X0360725Y0086693D01*
X0361478Y0084874D01*
X0362870Y0083482D01*
X0364689Y0082729D01*
X0366657Y0082729D01*
X0368476Y0083482D01*
X0369868Y0084874D01*
X0370621Y0086693D01*
X0370621Y0088661D01*
X0369868Y0090480D01*
X0368476Y0091872D01*
X0366657Y0092625D01*
X0364451Y0092527D02*
X0350458Y0092527D01*
X0350220Y0092625D02*
X0352039Y0091872D01*
X0353431Y0090480D01*
X0354184Y0088661D01*
X0354184Y0086693D01*
X0353431Y0084874D01*
X0352039Y0083482D01*
X0350220Y0082729D01*
X0341756Y0082729D01*
X0339937Y0083482D01*
X0338545Y0084874D01*
X0337792Y0086693D01*
X0337792Y0088661D01*
X0338545Y0090480D01*
X0339937Y0091872D01*
X0341756Y0092625D01*
X0350220Y0092625D01*
X0352383Y0091528D02*
X0362527Y0091528D01*
X0361528Y0090530D02*
X0353381Y0090530D01*
X0353824Y0089531D02*
X0361086Y0089531D01*
X0360725Y0088533D02*
X0354184Y0088533D01*
X0354184Y0087534D02*
X0360725Y0087534D01*
X0360790Y0086536D02*
X0354119Y0086536D01*
X0353706Y0085537D02*
X0361204Y0085537D01*
X0361814Y0084539D02*
X0353095Y0084539D01*
X0352097Y0083540D02*
X0362813Y0083540D01*
X0364689Y0078846D02*
X0362870Y0078092D01*
X0361478Y0076700D01*
X0360725Y0074882D01*
X0360725Y0072913D01*
X0361478Y0071095D01*
X0362870Y0069703D01*
X0364689Y0068950D01*
X0366657Y0068950D01*
X0368476Y0069703D01*
X0369868Y0071095D01*
X0370621Y0072913D01*
X0370621Y0074882D01*
X0369868Y0076700D01*
X0368476Y0078092D01*
X0366657Y0078846D01*
X0364689Y0078846D01*
X0363969Y0078548D02*
X0350940Y0078548D01*
X0350220Y0078846D02*
X0352039Y0078092D01*
X0353431Y0076700D01*
X0354184Y0074882D01*
X0354184Y0072913D01*
X0353431Y0071095D01*
X0352039Y0069703D01*
X0350220Y0068950D01*
X0341756Y0068950D01*
X0339937Y0069703D01*
X0338545Y0071095D01*
X0337792Y0072913D01*
X0337792Y0074882D01*
X0338545Y0076700D01*
X0339937Y0078092D01*
X0341756Y0078846D01*
X0350220Y0078846D01*
X0352582Y0077549D02*
X0362327Y0077549D01*
X0361416Y0076551D02*
X0353493Y0076551D01*
X0353907Y0075552D02*
X0361003Y0075552D01*
X0360725Y0074554D02*
X0354184Y0074554D01*
X0354184Y0073555D02*
X0360725Y0073555D01*
X0360873Y0072557D02*
X0354036Y0072557D01*
X0353623Y0071558D02*
X0361287Y0071558D01*
X0362014Y0070560D02*
X0352896Y0070560D01*
X0351697Y0069561D02*
X0363213Y0069561D01*
X0368134Y0069561D02*
X0386764Y0069561D01*
X0386764Y0068563D02*
X0009937Y0068563D01*
X0009937Y0069561D02*
X0340280Y0069561D01*
X0339081Y0070560D02*
X0009937Y0070560D01*
X0009937Y0071558D02*
X0338354Y0071558D01*
X0337940Y0072557D02*
X0009937Y0072557D01*
X0009937Y0073555D02*
X0337792Y0073555D01*
X0337792Y0074554D02*
X0009937Y0074554D01*
X0009937Y0075552D02*
X0338070Y0075552D01*
X0338483Y0076551D02*
X0009937Y0076551D01*
X0009937Y0077549D02*
X0339394Y0077549D01*
X0341036Y0078548D02*
X0009937Y0078548D01*
X0009937Y0079546D02*
X0386764Y0079546D01*
X0386764Y0078548D02*
X0367377Y0078548D01*
X0369019Y0077549D02*
X0386764Y0077549D01*
X0386764Y0076551D02*
X0369930Y0076551D01*
X0370344Y0075552D02*
X0386764Y0075552D01*
X0386764Y0074554D02*
X0370621Y0074554D01*
X0370621Y0073555D02*
X0386764Y0073555D01*
X0386764Y0072557D02*
X0370473Y0072557D01*
X0370060Y0071558D02*
X0386764Y0071558D01*
X0386764Y0070560D02*
X0369333Y0070560D01*
X0368534Y0083540D02*
X0386764Y0083540D01*
X0386764Y0082542D02*
X0009937Y0082542D01*
X0009937Y0083540D02*
X0339880Y0083540D01*
X0338881Y0084539D02*
X0009937Y0084539D01*
X0009937Y0085537D02*
X0338271Y0085537D01*
X0337857Y0086536D02*
X0009937Y0086536D01*
X0009937Y0087534D02*
X0337792Y0087534D01*
X0337792Y0088533D02*
X0232137Y0088533D01*
X0233244Y0089531D02*
X0338152Y0089531D01*
X0338595Y0090530D02*
X0233886Y0090530D01*
X0234300Y0091528D02*
X0339594Y0091528D01*
X0341518Y0092527D02*
X0234346Y0092527D01*
X0181404Y0054036D02*
X0180535Y0054319D01*
X0179661Y0054457D01*
X0179661Y0049146D01*
X0178693Y0049146D01*
X0178693Y0054457D01*
X0177819Y0054319D01*
X0176951Y0054036D01*
X0176137Y0053622D01*
X0175399Y0053085D01*
X0174753Y0052440D01*
X0174217Y0051701D01*
X0173802Y0050888D01*
X0173520Y0050020D01*
X0173382Y0049146D01*
X0178693Y0049146D01*
X0178693Y0048177D01*
X0179661Y0048177D01*
X0179661Y0042866D01*
X0180535Y0043004D01*
X0181404Y0043286D01*
X0182217Y0043701D01*
X0182956Y0044237D01*
X0183601Y0044883D01*
X0184138Y0045622D01*
X0184552Y0046435D01*
X0184834Y0047303D01*
X0184973Y0048177D01*
X0179661Y0048177D01*
X0179661Y0049146D01*
X0184973Y0049146D01*
X0184834Y0050020D01*
X0184552Y0050888D01*
X0184138Y0051701D01*
X0183601Y0052440D01*
X0182956Y0053085D01*
X0182217Y0053622D01*
X0181404Y0054036D01*
X0182268Y0053585D02*
X0386764Y0053585D01*
X0386764Y0054583D02*
X0166780Y0054583D01*
X0166591Y0054661D02*
X0168796Y0053748D01*
X0170484Y0052060D01*
X0171398Y0049855D01*
X0171398Y0047468D01*
X0170484Y0045263D01*
X0168796Y0043575D01*
X0166591Y0042661D01*
X0164204Y0042661D01*
X0161999Y0043575D01*
X0160311Y0045263D01*
X0159398Y0047468D01*
X0159398Y0049855D01*
X0160311Y0052060D01*
X0161999Y0053748D01*
X0164204Y0054661D01*
X0166591Y0054661D01*
X0164016Y0054583D02*
X0009937Y0054583D01*
X0009937Y0053585D02*
X0161836Y0053585D01*
X0160837Y0052586D02*
X0009937Y0052586D01*
X0009937Y0051588D02*
X0160115Y0051588D01*
X0159702Y0050589D02*
X0009937Y0050589D01*
X0009937Y0049591D02*
X0159398Y0049591D01*
X0159398Y0048592D02*
X0017638Y0048592D01*
X0020253Y0047594D02*
X0159398Y0047594D01*
X0159759Y0046595D02*
X0021847Y0046595D01*
X0022845Y0045597D02*
X0160173Y0045597D01*
X0160976Y0044598D02*
X0023739Y0044598D01*
X0024315Y0043600D02*
X0161974Y0043600D01*
X0168821Y0043600D02*
X0176336Y0043600D01*
X0176137Y0043701D02*
X0176951Y0043286D01*
X0177819Y0043004D01*
X0178693Y0042866D01*
X0178693Y0048177D01*
X0173382Y0048177D01*
X0173520Y0047303D01*
X0173802Y0046435D01*
X0174217Y0045622D01*
X0174753Y0044883D01*
X0175399Y0044237D01*
X0176137Y0043701D01*
X0175038Y0044598D02*
X0169820Y0044598D01*
X0170623Y0045597D02*
X0174235Y0045597D01*
X0173750Y0046595D02*
X0171036Y0046595D01*
X0171398Y0047594D02*
X0173474Y0047594D01*
X0173452Y0049591D02*
X0171398Y0049591D01*
X0171398Y0048592D02*
X0178693Y0048592D01*
X0179661Y0048592D02*
X0379063Y0048592D01*
X0376448Y0047594D02*
X0184880Y0047594D01*
X0184604Y0046595D02*
X0374854Y0046595D01*
X0373856Y0045597D02*
X0184120Y0045597D01*
X0183316Y0044598D02*
X0372962Y0044598D01*
X0372385Y0043600D02*
X0182019Y0043600D01*
X0179661Y0043600D02*
X0178693Y0043600D01*
X0178693Y0044598D02*
X0179661Y0044598D01*
X0179661Y0045597D02*
X0178693Y0045597D01*
X0178693Y0046595D02*
X0179661Y0046595D01*
X0179661Y0047594D02*
X0178693Y0047594D01*
X0178693Y0049591D02*
X0179661Y0049591D01*
X0179661Y0050589D02*
X0178693Y0050589D01*
X0178693Y0051588D02*
X0179661Y0051588D01*
X0179661Y0052586D02*
X0178693Y0052586D01*
X0178693Y0053585D02*
X0179661Y0053585D01*
X0176086Y0053585D02*
X0168959Y0053585D01*
X0169958Y0052586D02*
X0174900Y0052586D01*
X0174159Y0051588D02*
X0170680Y0051588D01*
X0171093Y0050589D02*
X0173705Y0050589D01*
X0183455Y0052586D02*
X0386764Y0052586D01*
X0386764Y0051588D02*
X0184196Y0051588D01*
X0184649Y0050589D02*
X0386764Y0050589D01*
X0386764Y0049591D02*
X0184902Y0049591D01*
X0025672Y0039606D02*
X0371028Y0039606D01*
X0371028Y0038607D02*
X0025672Y0038607D01*
X0025672Y0037609D02*
X0371028Y0037609D01*
X0371159Y0036610D02*
X0025542Y0036610D01*
X0025275Y0035612D02*
X0371426Y0035612D01*
X0371694Y0034613D02*
X0025007Y0034613D01*
X0024480Y0033615D02*
X0372221Y0033615D01*
X0371235Y0040604D02*
X0025466Y0040604D01*
X0025198Y0041603D02*
X0371503Y0041603D01*
X0371809Y0042601D02*
X0024892Y0042601D01*
X0012922Y0048592D02*
X0009937Y0048592D01*
X0009937Y0047594D02*
X0010306Y0047594D01*
X0009937Y0055582D02*
X0386764Y0055582D01*
X0386764Y0056580D02*
X0009937Y0056580D01*
X0009937Y0057579D02*
X0386764Y0057579D01*
X0386764Y0058577D02*
X0009937Y0058577D01*
X0009937Y0059576D02*
X0386764Y0059576D01*
X0386764Y0060574D02*
X0009937Y0060574D01*
X0009937Y0061573D02*
X0386764Y0061573D01*
X0386764Y0062571D02*
X0009937Y0062571D01*
X0009937Y0063570D02*
X0386764Y0063570D01*
X0386764Y0064568D02*
X0009937Y0064568D01*
X0009937Y0065567D02*
X0386764Y0065567D01*
X0386764Y0066565D02*
X0009937Y0066565D01*
X0009937Y0067564D02*
X0386764Y0067564D01*
X0386764Y0080545D02*
X0009937Y0080545D01*
X0009937Y0081543D02*
X0386764Y0081543D01*
X0386764Y0084539D02*
X0369532Y0084539D01*
X0370143Y0085537D02*
X0386764Y0085537D01*
X0386764Y0086536D02*
X0370556Y0086536D01*
X0370621Y0087534D02*
X0386764Y0087534D01*
X0386764Y0088533D02*
X0370621Y0088533D01*
X0370261Y0089531D02*
X0386764Y0089531D01*
X0386764Y0090530D02*
X0369818Y0090530D01*
X0368820Y0091528D02*
X0386764Y0091528D01*
X0386764Y0048592D02*
X0383779Y0048592D01*
X0386395Y0047594D02*
X0386764Y0047594D01*
X0362756Y0156431D02*
X0352153Y0156431D01*
X0353152Y0157430D02*
X0361757Y0157430D01*
X0361180Y0158429D02*
X0353729Y0158429D01*
X0354143Y0159427D02*
X0360767Y0159427D01*
X0360725Y0160426D02*
X0354184Y0160426D01*
X0354184Y0161424D02*
X0360725Y0161424D01*
X0361109Y0162423D02*
X0353800Y0162423D01*
X0353325Y0163421D02*
X0361585Y0163421D01*
X0362583Y0164420D02*
X0352326Y0164420D01*
X0350321Y0165418D02*
X0364588Y0165418D01*
X0364523Y0169412D02*
X0350387Y0169412D01*
X0352353Y0170411D02*
X0362556Y0170411D01*
X0361558Y0171409D02*
X0353352Y0171409D01*
X0353812Y0172408D02*
X0361098Y0172408D01*
X0360725Y0173406D02*
X0354184Y0173406D01*
X0354184Y0174405D02*
X0360725Y0174405D01*
X0360778Y0175403D02*
X0354131Y0175403D01*
X0353718Y0176402D02*
X0361192Y0176402D01*
X0361785Y0177400D02*
X0353125Y0177400D01*
X0352126Y0178399D02*
X0362783Y0178399D01*
X0385372Y0245299D02*
X0386764Y0245299D01*
D17*
X0318429Y0247126D03*
X0312524Y0247126D03*
X0306618Y0247126D03*
X0300713Y0247126D03*
X0294807Y0247126D03*
X0294807Y0253031D03*
X0300713Y0253031D03*
X0306618Y0253031D03*
X0312524Y0253031D03*
X0318429Y0253031D03*
X0277091Y0253031D03*
X0277091Y0247126D03*
X0267248Y0247126D03*
X0267248Y0253031D03*
X0257406Y0253031D03*
X0257406Y0247126D03*
X0160949Y0182165D03*
X0160949Y0176260D03*
X0151106Y0176260D03*
X0151106Y0182165D03*
X0141264Y0182165D03*
X0141264Y0176260D03*
X0123547Y0176260D03*
X0117642Y0176260D03*
X0111736Y0176260D03*
X0105831Y0176260D03*
X0099925Y0176260D03*
X0099925Y0182165D03*
X0105831Y0182165D03*
X0111736Y0182165D03*
X0117642Y0182165D03*
X0123547Y0182165D03*
X0123547Y0162480D03*
X0117642Y0162480D03*
X0111736Y0162480D03*
X0105831Y0162480D03*
X0099925Y0162480D03*
X0099925Y0156575D03*
X0105831Y0156575D03*
X0111736Y0156575D03*
X0117642Y0156575D03*
X0123547Y0156575D03*
X0123547Y0144764D03*
X0117642Y0144764D03*
X0111736Y0144764D03*
X0105831Y0144764D03*
X0099925Y0144764D03*
X0099925Y0138858D03*
X0105831Y0138858D03*
X0111736Y0138858D03*
X0117642Y0138858D03*
X0123547Y0138858D03*
X0141264Y0138858D03*
X0141264Y0144764D03*
X0151106Y0144764D03*
X0151106Y0138858D03*
X0160949Y0138858D03*
X0160949Y0144764D03*
X0160949Y0156575D03*
X0151106Y0156575D03*
X0151106Y0162480D03*
X0160949Y0162480D03*
X0141264Y0162480D03*
X0141264Y0156575D03*
X0135358Y0235315D03*
X0125516Y0235315D03*
X0115673Y0235315D03*
X0105831Y0235315D03*
X0099925Y0235315D03*
X0094020Y0235315D03*
X0088114Y0235315D03*
X0082209Y0235315D03*
X0149138Y0069961D03*
X0153075Y0069961D03*
X0157012Y0069961D03*
X0160949Y0069961D03*
X0164886Y0069961D03*
X0168823Y0069961D03*
X0172760Y0069961D03*
D18*
X0015280Y0038465D03*
X0015280Y0255000D03*
X0381421Y0255000D03*
X0381421Y0038465D03*
M02*
