G75*
%MOIN*%
%OFA0B0*%
%FSLAX25Y25*%
%IPPOS*%
%LPD*%
%AMOC8*
5,1,8,0,0,1.08239X$1,22.5*
%
%ADD10C,0.00000*%
%ADD11R,0.11036X0.09461*%
%ADD12R,0.05131X0.06312*%
%ADD13R,0.08477X0.06706*%
%ADD14R,0.06312X0.06312*%
%ADD15R,0.09461X0.03162*%
%ADD16R,0.08674X0.06706*%
%ADD17R,0.08674X0.15761*%
%ADD18C,0.06800*%
%ADD19C,0.09400*%
%ADD20C,0.06737*%
%ADD21C,0.07296*%
%ADD22C,0.07296*%
%ADD23C,0.18186*%
D10*
X0005437Y0028622D02*
X0005437Y0264843D01*
X0391264Y0264843D01*
X0391264Y0028622D01*
X0005437Y0028622D01*
D11*
X0117642Y0073898D03*
X0137327Y0073898D03*
D12*
X0139295Y0048307D03*
X0131421Y0048307D03*
X0121579Y0048307D03*
X0113705Y0048307D03*
X0092051Y0079803D03*
X0084177Y0079803D03*
X0304650Y0097520D03*
X0312524Y0097520D03*
X0312524Y0142795D03*
X0304650Y0142795D03*
X0304650Y0186102D03*
X0312524Y0186102D03*
X0312524Y0229409D03*
X0304650Y0229409D03*
X0068429Y0239252D03*
X0060555Y0239252D03*
D13*
X0122071Y0058150D03*
X0132898Y0058150D03*
D14*
X0134965Y0038465D03*
X0120004Y0038465D03*
X0095594Y0069961D03*
X0080634Y0069961D03*
D15*
X0284571Y0072303D03*
X0284571Y0077303D03*
X0284571Y0082303D03*
X0284571Y0087303D03*
X0305043Y0087303D03*
X0305043Y0082303D03*
X0305043Y0077303D03*
X0305043Y0072303D03*
X0305043Y0117579D03*
X0305043Y0122579D03*
X0305043Y0127579D03*
X0305043Y0132579D03*
X0284571Y0132579D03*
X0284571Y0127579D03*
X0284571Y0122579D03*
X0284571Y0117579D03*
X0284571Y0160886D03*
X0284571Y0165886D03*
X0284571Y0170886D03*
X0284571Y0175886D03*
X0305043Y0175886D03*
X0305043Y0170886D03*
X0305043Y0165886D03*
X0305043Y0160886D03*
X0305043Y0204193D03*
X0305043Y0209193D03*
X0305043Y0214193D03*
X0305043Y0219193D03*
X0284571Y0219193D03*
X0284571Y0214193D03*
X0284571Y0209193D03*
X0284571Y0204193D03*
D16*
X0096579Y0057362D03*
X0096579Y0048307D03*
X0096579Y0039252D03*
D17*
X0071776Y0048307D03*
D18*
X0074827Y0251843D02*
X0074827Y0257843D01*
X0064827Y0257843D02*
X0064827Y0251843D01*
X0054827Y0251843D02*
X0054827Y0257843D01*
X0044827Y0257843D02*
X0044827Y0251843D01*
X0084827Y0251843D02*
X0084827Y0257843D01*
X0094827Y0257843D02*
X0094827Y0251843D01*
X0104827Y0251843D02*
X0104827Y0257843D01*
X0114827Y0257843D02*
X0114827Y0251843D01*
X0124827Y0251843D02*
X0124827Y0257843D01*
X0134827Y0257843D02*
X0134827Y0251843D01*
X0144827Y0251843D02*
X0144827Y0257843D01*
X0154827Y0257843D02*
X0154827Y0251843D01*
X0164827Y0251843D02*
X0164827Y0257843D01*
X0174827Y0257843D02*
X0174827Y0251843D01*
X0184827Y0251843D02*
X0184827Y0257843D01*
X0194827Y0257843D02*
X0194827Y0251843D01*
D19*
X0179177Y0048661D03*
X0165398Y0048661D03*
D20*
X0169677Y0092567D03*
X0159677Y0092567D03*
X0149677Y0092567D03*
X0139677Y0092567D03*
X0129677Y0092567D03*
X0119677Y0092567D03*
X0109677Y0092567D03*
X0099677Y0092567D03*
X0089677Y0092567D03*
X0079677Y0092567D03*
X0079677Y0102567D03*
X0089677Y0102567D03*
X0099677Y0102567D03*
X0109677Y0102567D03*
X0119677Y0102567D03*
X0129677Y0102567D03*
X0139677Y0102567D03*
X0149677Y0102567D03*
X0159677Y0102567D03*
X0169677Y0102567D03*
X0179677Y0102567D03*
X0189677Y0102567D03*
X0189677Y0092567D03*
X0179677Y0092567D03*
X0199677Y0092567D03*
X0209677Y0092567D03*
X0209677Y0102567D03*
X0199677Y0102567D03*
X0219677Y0102567D03*
X0229677Y0102567D03*
X0229677Y0092567D03*
X0219677Y0092567D03*
X0220862Y0118295D03*
X0230862Y0118295D03*
X0230862Y0128295D03*
X0220862Y0128295D03*
X0220862Y0138295D03*
X0230862Y0138295D03*
X0229661Y0172795D03*
X0219661Y0172795D03*
X0219661Y0182795D03*
X0229661Y0182795D03*
X0229661Y0192795D03*
X0219661Y0192795D03*
X0219661Y0202795D03*
X0229661Y0202795D03*
X0229661Y0212795D03*
X0219661Y0212795D03*
X0209661Y0212795D03*
X0199661Y0212795D03*
X0189661Y0212795D03*
X0179661Y0212795D03*
X0169661Y0212795D03*
X0159661Y0212795D03*
X0149661Y0212795D03*
X0139661Y0212795D03*
X0129661Y0212795D03*
X0119661Y0212795D03*
X0109661Y0212795D03*
X0099661Y0212795D03*
X0089661Y0212795D03*
X0079661Y0212795D03*
X0069661Y0212795D03*
X0069661Y0222795D03*
X0079661Y0222795D03*
X0089661Y0222795D03*
X0099661Y0222795D03*
X0109661Y0222795D03*
X0119661Y0222795D03*
X0129661Y0222795D03*
X0139661Y0222795D03*
X0149661Y0222795D03*
X0159661Y0222795D03*
X0169661Y0222795D03*
X0179661Y0222795D03*
X0189661Y0222795D03*
X0199661Y0222795D03*
X0209661Y0222795D03*
X0219661Y0222795D03*
X0229661Y0222795D03*
X0049661Y0222795D03*
X0039661Y0222795D03*
X0029661Y0222795D03*
X0029661Y0212795D03*
X0039661Y0212795D03*
X0049661Y0212795D03*
X0049677Y0102567D03*
X0039677Y0102567D03*
X0029677Y0102567D03*
X0029677Y0092567D03*
X0039677Y0092567D03*
X0049677Y0092567D03*
X0059677Y0092567D03*
X0059677Y0102567D03*
D21*
X0342740Y0117205D02*
X0349236Y0117205D01*
X0349236Y0130984D02*
X0342740Y0130984D01*
X0342740Y0160512D02*
X0349236Y0160512D01*
X0349236Y0174291D02*
X0342740Y0174291D01*
X0342740Y0203819D02*
X0349236Y0203819D01*
X0349236Y0217598D02*
X0342740Y0217598D01*
X0342740Y0087677D02*
X0349236Y0087677D01*
X0349236Y0073898D02*
X0342740Y0073898D01*
D22*
X0365673Y0073898D03*
X0365673Y0087677D03*
X0365673Y0117205D03*
X0365673Y0130984D03*
X0365673Y0160512D03*
X0365673Y0174291D03*
X0365673Y0203819D03*
X0365673Y0217598D03*
D23*
X0381421Y0255000D03*
X0381421Y0038465D03*
X0015280Y0038465D03*
X0015280Y0255000D03*
M02*
