%
M48
M72
T01C0.01181
T02C0.03937
T03C0.04000
T04C0.04331
T05C0.13386
%
T01
X149138Y69961
X153075Y69961
X157012Y69961
X160949Y69961
X164886Y69961
X168823Y69961
X172760Y69961
X160949Y138858
X160949Y144764
X151106Y144764
X151106Y138858
X141264Y138858
X141264Y144764
X141264Y156575
X141264Y162480
X151106Y162480
X160949Y162480
X160949Y156575
X151106Y156575
X123547Y156575
X117642Y156575
X111736Y156575
X105831Y156575
X99925Y156575
X99925Y162480
X105831Y162480
X111736Y162480
X117642Y162480
X123547Y162480
X123547Y176260
X117642Y176260
X111736Y176260
X105831Y176260
X99925Y176260
X99925Y182165
X105831Y182165
X111736Y182165
X117642Y182165
X123547Y182165
X141264Y182165
X141264Y176260
X151106Y176260
X151106Y182165
X160949Y182165
X160949Y176260
X123547Y144764
X117642Y144764
X111736Y144764
X105831Y144764
X99925Y144764
X99925Y138858
X105831Y138858
X111736Y138858
X117642Y138858
X123547Y138858
X125516Y235315
X115673Y235315
X105831Y235315
X99925Y235315
X94020Y235315
X88114Y235315
X82209Y235315
X135358Y235315
X257406Y247126
X257406Y253031
X267248Y253031
X267248Y247126
X277091Y247126
X277091Y253031
X294807Y253031
X300713Y253031
X300713Y247126
X294807Y247126
X306618Y247126
X312524Y247126
X318429Y247126
X318429Y253031
X312524Y253031
X306618Y253031
T02
X29661Y222795
X39661Y222795
X49661Y222795
X49661Y212795
X39661Y212795
X29661Y212795
X69661Y212795
X79661Y212795
X89661Y212795
X99661Y212795
X109661Y212795
X119661Y212795
X129661Y212795
X139661Y212795
X149661Y212795
X159661Y212795
X169661Y212795
X179661Y212795
X189661Y212795
X199661Y212795
X209661Y212795
X219661Y212795
X229661Y212795
X229661Y202795
X219661Y202795
X219661Y192795
X229661Y192795
X229661Y182795
X219661Y182795
X219661Y172795
X229661Y172795
X230862Y138295
X220862Y138295
X220862Y128295
X230862Y128295
X230862Y118295
X220862Y118295
X219677Y102567
X229677Y102567
X229677Y92567
X219677Y92567
X209677Y92567
X199677Y92567
X189677Y92567
X179677Y92567
X169677Y92567
X159677Y92567
X149677Y92567
X139677Y92567
X129677Y92567
X119677Y92567
X109677Y92567
X99677Y92567
X89677Y92567
X79677Y92567
X79677Y102567
X89677Y102567
X99677Y102567
X109677Y102567
X119677Y102567
X129677Y102567
X139677Y102567
X149677Y102567
X159677Y102567
X169677Y102567
X179677Y102567
X189677Y102567
X199677Y102567
X209677Y102567
X179177Y48661
X165398Y48661
X59677Y92567
X49677Y92567
X39677Y92567
X29677Y92567
X29677Y102567
X39677Y102567
X49677Y102567
X59677Y102567
X69661Y222795
X79661Y222795
X89661Y222795
X99661Y222795
X109661Y222795
X119661Y222795
X129661Y222795
X139661Y222795
X149661Y222795
X159661Y222795
X169661Y222795
X179661Y222795
X189661Y222795
X199661Y222795
X209661Y222795
X219661Y222795
X229661Y222795
T03
X44827Y254843
X54827Y254843
X64827Y254843
X74827Y254843
X84827Y254843
X94827Y254843
X104827Y254843
X114827Y254843
X124827Y254843
X134827Y254843
X144827Y254843
X154827Y254843
X164827Y254843
X174827Y254843
X184827Y254843
X194827Y254843
T04
X345988Y217598
X345988Y203819
X365673Y203819
X365673Y217598
X365673Y174291
X365673Y160512
X345988Y160512
X345988Y174291
X345988Y130984
X345988Y117205
X365673Y117205
X365673Y130984
X365673Y87677
X365673Y73898
X345988Y73898
X345988Y87677
T05
X15280Y38465
X15280Y255000
X381421Y255000
X381421Y38465
M30
